<?xml version="1.0" standalone="no"?>
<!DOCTYPE svg PUBLIC "-//W3C//DTD SVG 20010904//EN"
 "http://www.w3.org/TR/2001/REC-SVG-20010904/DTD/svg10.dtd">
<svg version="1.0" xmlns="http://www.w3.org/2000/svg"
 width="300.000000pt" height="300.000000pt" viewBox="0 0 300.000000 300.000000"
 preserveAspectRatio="xMidYMid meet">

<g transform="translate(0.000000,300.000000) scale(0.100000,-0.100000)"
fill="#000000" stroke="none">
<path d="M866 2985 c-60 -21 -111 -79 -164 -185 -43 -86 -47 -102 -47 -165 0
-78 31 -155 72 -183 20 -13 26 -13 48 2 24 16 38 53 50 128 7 48 45 78 97 78
58 0 59 -22 1 -83 -27 -29 -59 -69 -71 -89 -18 -30 -33 -40 -76 -52 -39 -12
-68 -30 -109 -69 -74 -72 -95 -137 -79 -243 6 -39 20 -93 31 -120 l20 -49 -6
45 c-3 25 -9 53 -13 64 -7 21 12 122 29 154 8 15 21 22 41 22 24 0 38 -11 79
-63 48 -61 99 -98 153 -111 21 -5 26 -3 22 8 -4 10 9 24 37 42 29 18 44 23 47
15 6 -17 78 83 112 155 18 39 27 70 23 84 -4 15 -2 21 4 17 6 -4 13 3 17 16 9
33 7 44 -4 27 -5 -8 -10 -10 -10 -4 0 6 7 17 15 24 8 7 15 25 15 41 0 16 4 29
9 29 31 0 11 97 -26 120 -17 11 -16 11 3 7 20 -4 21 -2 13 27 -14 49 -12 54
32 61 109 19 204 22 232 8 15 -7 27 -9 27 -4 0 11 -35 39 -80 64 -18 10 -30
20 -27 24 10 9 88 -42 136 -89 39 -38 44 -40 38 -18 -4 14 -7 29 -7 33 0 5 -4
5 -10 2 -6 -3 -7 1 -4 10 4 8 0 23 -7 32 -13 15 -12 15 6 5 66 -34 204 -227
234 -326 10 -33 23 -61 27 -61 37 -2 133 -34 203 -68 101 -49 176 -118 217
-202 27 -56 29 -68 29 -170 -1 -98 -4 -118 -30 -180 -43 -105 -111 -186 -179
-211 -14 -5 -17 -4 -11 5 5 10 2 11 -14 6 -11 -3 -22 -3 -22 2 -9 54 -12 215
-5 243 6 23 5 23 -7 -3 l-13 -27 -17 47 c-9 27 -17 60 -17 75 0 15 -4 30 -10
33 -6 4 -8 -5 -6 -22 2 -15 1 -20 -1 -10 -2 9 -8 15 -13 12 -4 -3 -14 3 -21
13 -13 15 -12 16 4 3 10 -8 17 -9 17 -3 0 6 -4 14 -10 17 -14 9 -12 22 4 28
10 4 13 -1 10 -16 -2 -12 -1 -16 2 -9 4 10 11 7 22 -10 9 -13 16 -26 14 -31
-1 -4 3 -28 10 -54 10 -41 12 -44 20 -24 16 44 24 11 22 -92 -3 -134 11 -157
19 -33 13 191 -22 267 -175 381 -51 39 -94 73 -96 76 -1 3 -9 14 -16 24 -12
16 -13 15 -14 -16 -1 -39 16 -68 29 -47 5 9 8 6 7 -9 -2 -17 -6 -19 -23 -13
-25 9 -32 68 -14 112 17 40 4 47 -19 9 -22 -36 -20 -97 5 -144 8 -16 12 -31 9
-34 -8 -8 -36 54 -37 84 -1 21 -4 16 -10 -17 -12 -55 1 -105 36 -142 14 -15
25 -32 25 -38 0 -5 5 -10 10 -10 13 0 13 6 -5 40 -9 17 -20 30 -25 30 -5 0 -8
9 -7 19 1 21 17 18 17 -3 0 -7 9 -22 19 -33 12 -12 20 -34 19 -54 0 -19 4 -59
10 -89 l11 -55 -5 55 c-2 30 -4 70 -4 89 0 19 -9 52 -20 73 -19 37 -19 38 0
26 27 -17 28 -22 34 -165 4 -88 3 -120 -4 -103 -8 21 -9 17 -5 -17 9 -80 -39
-151 -130 -192 -37 -17 -243 -27 -282 -14 -36 12 -152 1 -224 -21 l-55 -17
-18 -62 c-9 -34 -19 -68 -22 -76 -9 -28 -152 15 -201 61 -28 26 -29 40 -5 61
15 13 21 14 32 4 8 -6 5 -1 -7 13 -12 14 -28 37 -36 53 l-14 27 -19 -27 c-23
-35 -32 -169 -14 -212 10 -25 8 -41 -14 -110 -31 -98 -35 -212 -10 -285 13
-39 15 -77 11 -209 -5 -175 -18 -242 -65 -339 -19 -38 -24 -59 -17 -62 7 -2
12 1 13 7 0 7 12 40 27 75 36 87 56 197 58 334 1 64 5 110 10 103 8 -16 10
-234 2 -280 -3 -16 -10 -52 -17 -80 -6 -27 -12 -57 -13 -65 0 -9 -3 -20 -7
-25 -3 -6 -8 -23 -12 -38 -5 -22 -4 -27 6 -22 7 4 4 0 -6 -9 -18 -15 -18 -16
6 -25 47 -18 98 -24 98 -12 0 6 5 11 11 11 7 0 9 -10 4 -27 -5 -23 -4 -25 9
-14 8 7 28 13 43 13 23 1 31 7 40 32 6 17 27 74 47 126 l37 95 -6 -60 c-6 -53
-15 -103 -31 -158 -5 -15 -2 -16 20 -7 14 5 39 7 54 4 22 -5 30 -1 41 19 7 14
10 31 6 38 -5 8 -4 10 3 5 8 -5 12 1 12 16 0 19 -2 20 -10 8 -9 -13 -12 -12
-25 4 -17 22 -17 31 -6 61 7 17 9 16 15 -13 8 -33 30 -43 40 -17 14 38 27 198
21 270 -3 44 -18 136 -32 205 -21 104 -30 215 -20 263 3 16 -67 14 -81 -3 -12
-13 -13 -13 -8 3 7 21 -10 23 -18 2 -3 -8 -1 -15 5 -15 7 0 8 -7 4 -18 -4 -9
-11 -30 -16 -47 -6 -26 -7 -23 -7 20 0 80 2 82 59 84 185 4 355 52 436 125 13
10 24 18 26 15 2 -2 16 -27 31 -54 41 -78 100 -139 210 -222 235 -177 382
-356 426 -516 21 -79 -2 -277 -32 -277 -4 0 -8 -5 -8 -11 0 -15 -33 -53 -47
-56 -7 -2 -10 4 -7 12 4 8 10 12 15 9 5 -3 6 2 2 12 -5 15 -7 15 -15 0 -5 -9
-14 -16 -21 -16 -8 0 -8 3 2 9 15 10 8 15 -32 25 -27 6 -26 4 20 -42 l48 -49
26 44 26 44 105 2 c97 2 108 4 154 32 51 32 118 119 128 165 2 14 8 34 12 45
7 18 6 18 -9 6 -15 -12 -17 -10 -18 20 0 19 -4 43 -9 54 -7 17 -9 14 -10 -15
l-1 -35 -15 40 c-19 51 -38 72 -28 30 4 -16 10 -34 14 -40 10 -16 10 -56 -1
-49 -5 3 -7 15 -3 26 4 14 3 18 -6 13 -7 -4 -9 -17 -6 -31 4 -15 -1 -39 -13
-62 -17 -34 -18 -41 -5 -71 13 -32 13 -36 -8 -58 -26 -28 -38 -29 -80 -2 -20
12 -25 18 -12 15 27 -8 56 3 47 18 -3 6 -2 7 2 3 16 -14 14 -36 -3 -30 -10 4
-13 2 -8 -5 11 -19 26 -14 36 11 5 12 9 16 9 9 1 -7 5 -11 10 -8 5 3 7 15 4
26 -4 16 -8 18 -19 9 -17 -14 -19 2 -2 19 7 7 8 12 2 12 -6 0 -19 -9 -29 -20
-20 -22 -74 -40 -121 -40 -29 0 -54 -24 -39 -38 3 -3 5 -1 5 5 0 5 24 11 53
11 37 2 48 -1 37 -8 -12 -8 -9 -10 12 -10 15 0 29 -4 32 -9 9 -14 -77 -33
-135 -29 -45 2 -54 6 -57 23 -3 17 -1 18 8 5 9 -13 11 -12 9 5 -2 11 1 51 5
89 6 56 13 73 32 89 13 10 24 27 24 37 0 10 5 22 11 26 8 4 9 -1 5 -17 -6 -21
-5 -21 4 -6 6 10 8 27 4 40 -5 12 -7 28 -6 34 2 7 -5 27 -15 45 -10 18 -21 42
-25 53 -4 11 -5 -21 -3 -71 5 -87 -4 -144 -23 -144 -5 0 -12 23 -15 52 -19
154 -162 338 -422 541 -121 94 -194 172 -234 250 l-21 42 20 40 c11 21 20 58
20 80 l0 41 58 18 c143 43 193 145 173 357 -5 57 -8 106 -5 108 11 12 107 -99
141 -163 34 -66 37 -76 35 -156 -1 -99 12 -130 56 -130 67 0 151 87 205 212
30 69 32 80 32 193 0 111 -2 124 -28 176 -31 65 -109 146 -176 186 -25 15 -92
43 -149 63 l-104 35 -27 71 c-45 117 -137 237 -245 323 -67 53 -94 67 -58 29
24 -27 46 -78 32 -78 -5 0 -11 4 -14 9 -12 19 -98 51 -133 50 -37 -1 -38 -1
-12 -12 35 -16 59 -37 59 -52 0 -8 -27 -14 -82 -19 -46 -3 -98 -9 -115 -12
-27 -5 -33 -3 -33 11 0 31 -66 138 -112 181 -65 62 -118 76 -192 49z m129 -16
c55 -23 165 -171 165 -222 0 -13 -70 -47 -97 -47 -6 0 -16 -7 -23 -15 -7 -9
-18 -14 -24 -12 -6 2 -16 -2 -21 -10 -8 -11 -18 -7 -49 22 -21 19 -44 35 -50
35 -6 0 -3 5 7 11 20 12 57 3 57 -13 0 -6 -6 -6 -15 2 -26 22 -26 5 -1 -17 13
-12 27 -19 30 -16 3 4 6 0 7 -8 0 -8 5 -3 10 10 7 18 15 22 34 18 14 -2 28 0
31 4 3 5 1 9 -5 9 -6 0 -8 6 -5 13 5 14 -75 97 -97 101 -8 1 -24 8 -37 14 -25
14 -144 14 -136 0 3 -4 -2 -5 -10 -2 -11 4 -16 0 -16 -14 0 -11 -7 -25 -15
-32 -21 -18 -19 -29 5 -23 11 3 20 14 20 24 0 11 5 19 11 19 6 0 9 -9 6 -20
-3 -11 -1 -23 4 -26 5 -3 9 4 9 15 0 17 4 19 23 12 12 -4 28 -6 35 -4 6 3 12
1 12 -4 0 -5 -6 -15 -12 -22 -11 -11 -10 -12 1 -6 9 5 12 4 8 -2 -4 -6 4 -10
21 -10 15 0 21 2 15 4 -7 3 -13 14 -13 25 0 14 5 18 15 14 19 -7 47 3 39 15
-3 5 2 9 10 9 26 0 30 -22 6 -40 -17 -13 -20 -19 -9 -23 11 -4 10 -6 -3 -6 -9
-1 -19 5 -21 12 -4 7 -6 6 -6 -4 -1 -23 -33 -29 -62 -13 -30 17 -109 17 -130
1 -9 -7 -24 -25 -33 -42 -10 -16 -14 -21 -11 -10 4 11 10 28 12 38 3 9 12 17
19 17 8 0 14 5 14 11 0 5 -5 7 -11 4 -21 -14 64 134 96 165 56 54 122 68 190
39z m-165 -123 c0 -2 -9 -6 -20 -9 -11 -3 -20 -1 -20 4 0 5 9 9 20 9 11 0 20
-2 20 -4z m58 -3 c-10 -2 -26 -2 -35 0 -10 3 -2 5 17 5 19 0 27 -2 18 -5z
m107 -98 c0 -44 -15 -55 -31 -22 -13 30 -7 48 14 40 15 -6 16 -5 2 12 -13 16
-13 18 0 13 10 -3 15 -18 15 -43z m-159 -14 c45 -21 65 -41 39 -41 -29 0 -64
-50 -75 -108 -20 -104 -19 -102 -44 -102 -53 0 -95 135 -62 199 16 30 69 71
91 71 6 0 29 -9 51 -19z m344 -39 c0 -10 -5 -23 -12 -30 -14 -14 -72 -17 -64
-3 3 5 15 7 25 4 13 -3 23 2 30 16 7 12 8 21 2 21 -5 0 -12 -7 -15 -16 -3 -9
-13 -14 -21 -10 -8 3 -27 -1 -42 -9 -23 -12 -25 -15 -8 -15 15 -1 13 -4 -10
-14 -31 -14 -135 -117 -135 -134 0 -5 7 -15 15 -22 11 -9 20 -8 45 6 16 10 30
22 30 27 0 5 10 7 21 4 16 -4 19 -3 11 5 -12 12 -36 4 -79 -28 -13 -9 -23 -13
-23 -8 0 13 59 49 103 63 46 16 91 7 83 -15 -3 -9 -6 -25 -6 -37 0 -13 -3 -17
-8 -11 -4 7 -24 14 -45 17 -30 4 -44 0 -66 -19 -31 -25 -80 -32 -82 -11 -1 6
-3 22 -4 34 -1 14 13 36 41 64 24 24 44 49 44 57 0 7 5 10 10 7 6 -3 10 -2 10
4 0 5 19 21 42 35 31 18 46 22 55 14 10 -8 13 -6 13 6 0 9 8 16 20 16 13 0 20
-7 20 -18z m-221 -119 c-26 -27 -49 -56 -53 -66 -3 -11 -11 -15 -17 -11 -8 5
-9 3 -4 -5 4 -8 -1 -18 -14 -27 -12 -9 -19 -20 -16 -25 8 -13 42 -11 51 2 4 8
-1 9 -17 5 -20 -6 -21 -5 -6 4 9 6 17 18 17 26 0 8 4 13 10 9 5 -3 7 -12 3
-20 -3 -8 0 -15 7 -15 6 0 8 -4 5 -10 -3 -5 -1 -10 4 -10 6 0 11 -7 11 -15 0
-8 7 -15 16 -15 8 0 12 4 9 10 -9 14 92 5 111 -10 8 -8 20 -23 25 -34 8 -17 6
-16 -11 4 -18 21 -21 21 -15 5 4 -11 10 -28 12 -38 4 -12 9 -14 17 -8 8 7 12
4 12 -9 0 -10 -4 -16 -8 -13 -5 2 -6 -8 -4 -24 7 -35 -2 -65 -16 -57 -8 5 -9
1 -5 -10 4 -10 3 -15 -3 -11 -6 3 -10 0 -10 -8 0 -8 -9 -22 -21 -33 -21 -19
-21 -18 1 24 47 91 43 170 -10 197 -79 41 -190 -74 -190 -197 0 -40 5 -57 23
-76 l22 -24 -35 19 c-19 11 -55 45 -79 77 -29 39 -52 59 -72 63 -16 3 -31 14
-34 24 -4 11 -11 17 -16 13 -6 -4 -6 -11 2 -20 6 -8 7 -14 2 -14 -14 0 -40
-57 -51 -110 -9 -43 -9 -42 -8 27 0 39 4 66 8 60 4 -6 10 -8 14 -4 4 3 2 12
-3 19 -6 8 -7 22 -2 33 7 17 8 16 8 -8 1 -38 18 -26 19 13 0 21 -3 28 -11 23
-7 -4 -5 4 4 17 25 39 108 97 155 109 30 8 49 20 61 39 19 31 26 38 84 105 23
26 46 47 52 47 6 0 -9 -21 -34 -47z m230 -59 c3 -3 -2 -11 -10 -20 -14 -13
-17 -12 -27 11 -12 25 -11 26 10 19 13 -3 25 -8 27 -10z m-155 -49 c-4 -8 -13
-15 -21 -15 -13 0 -13 3 -3 15 7 8 16 15 21 15 5 0 6 -7 3 -15z m90 -21 c4
-10 -5 -12 -32 -8 -25 3 -32 1 -22 -5 8 -5 18 -7 22 -5 4 3 8 0 8 -5 0 -14
-10 -13 -39 3 -14 8 -32 11 -40 9 -10 -4 -9 0 4 10 23 19 92 19 99 1z m-144
-4 c18 -12 2 -12 -25 0 -13 6 -15 9 -5 9 8 0 22 -4 30 -9z m167 -22 c-3 -8 -6
-5 -6 6 -1 11 2 17 5 13 3 -3 4 -12 1 -19z m-3 -53 c5 -22 4 -26 -4 -15 -5 8
-10 24 -10 34 0 26 6 18 14 -19z m-99 -10 c14 -13 25 -34 25 -47 -1 -22 -1
-22 -15 4 -19 35 -48 43 -82 23 -27 -16 -10 -16 27 -1 8 3 21 2 28 -2 16 -11
34 -72 21 -72 -5 0 -9 7 -9 15 0 9 -11 21 -25 27 -22 10 -28 9 -41 -10 -8 -12
-21 -22 -28 -22 -16 0 -26 -22 -26 -56 0 -37 18 -64 42 -64 20 0 19 -1 -5 -20
-32 -25 -49 -25 -73 1 -39 43 -12 151 53 210 48 45 74 49 108 14z m92 -47 c-3
-8 -6 -5 -6 6 -1 11 2 17 5 13 3 -3 4 -12 1 -19z m590 -140 c-3 -7 -5 -2 -5
12 0 14 2 19 5 13 2 -7 2 -19 0 -25z m129 -85 c17 -18 34 -33 38 -33 11 0 39
-30 34 -36 -3 -2 -11 2 -18 11 -17 20 -28 19 -26 -2 1 -12 -5 -17 -16 -15 -10
2 -18 -2 -18 -8 0 -5 5 -10 12 -10 6 0 8 -3 5 -7 -4 -3 -18 4 -31 16 -25 23
-27 51 -6 76 16 19 -28 45 -58 34 -12 -5 -22 -13 -22 -19 0 -6 7 -6 20 2 16
10 22 10 32 -1 11 -11 9 -13 -9 -8 -25 6 -32 -8 -8 -17 8 -3 15 -13 15 -23 0
-13 -10 -7 -40 22 -37 36 -54 65 -30 50 6 -3 20 -3 31 0 15 5 18 10 10 18 -6
6 -11 14 -11 19 0 11 61 -33 96 -69z m-170 -20 c1 -13 -2 -23 -7 -23 -5 0 -9
8 -9 18 0 9 -3 28 -6 42 -5 23 -4 23 7 6 7 -11 13 -30 15 -43z m-761 27 c3 -5
1 -10 -4 -10 -6 0 -11 5 -11 10 0 6 2 10 4 10 3 0 8 -4 11 -10z m1029 -106 c9
-24 7 -28 -9 -14 -17 14 -20 30 -6 30 5 0 12 -7 15 -16z m26 -74 c0 -44 -15
-43 -16 1 -1 21 2 36 7 33 5 -3 9 -18 9 -34z m-1188 -393 c-3 -35 1 -49 22
-74 28 -33 103 -69 169 -83 29 -5 34 -8 16 -9 -35 -1 -132 33 -171 60 -33 24
-61 78 -53 103 3 9 7 23 10 31 8 26 10 16 7 -28z m418 23 c0 -5 -8 -10 -17
-10 -15 0 -16 -2 -3 -10 21 -14 30 -12 30 5 0 8 5 15 10 15 18 0 11 -29 -10
-40 -15 -8 -18 -18 -15 -43 3 -17 2 -25 -1 -17 -4 8 -12 18 -18 22 -16 10 -14
32 4 40 10 4 4 9 -19 14 l-34 7 34 12 c19 7 35 13 37 14 1 0 2 -3 2 -9z m65 0
c4 -6 16 -8 27 -5 19 7 143 -4 135 -11 -2 -2 -28 -8 -58 -13 l-54 -9 73 -1
c39 0 72 -4 72 -8 0 -28 -167 -103 -244 -110 -90 -8 -182 -12 -163 -7 12 4 17
15 16 37 0 27 -2 29 -9 12 -7 -16 -9 -17 -9 -3 -1 9 6 24 15 32 8 9 12 21 8
27 -5 8 -3 9 6 4 9 -6 12 -4 8 6 -4 10 4 14 32 14 28 1 36 -3 32 -13 -3 -8
-14 -12 -28 -9 -15 3 -24 -1 -24 -8 0 -18 25 -26 39 -12 8 8 11 8 11 -2 0 -7
-9 -15 -20 -18 -27 -7 -25 -31 3 -36 19 -4 18 -4 -5 -6 -16 0 -28 -5 -28 -10
0 -11 53 -1 62 12 4 7 11 7 20 -1 11 -9 17 -3 30 33 12 32 14 45 5 49 -7 2 -5
5 4 5 9 1 19 8 23 16 3 8 11 12 19 10 7 -3 31 -1 52 4 l40 10 -40 -1 c-60 -1
-75 1 -75 12 0 13 17 13 25 0z m225 -14 c0 -8 -4 -17 -9 -20 -10 -7 -23 19
-14 28 11 11 23 6 23 -8z m15 -30 c-25 -38 -177 -128 -191 -113 -3 2 16 12 41
21 57 22 141 88 151 118 4 13 9 18 11 11 2 -6 -3 -23 -12 -37z m-220 -126
c-11 -5 -31 -8 -45 -8 -23 0 -22 1 5 8 42 11 65 11 40 0z m-87 -17 c-10 -2
-26 -2 -35 0 -10 3 -2 5 17 5 19 0 27 -2 18 -5z m-85 -10 c-18 -2 -48 -2 -65
0 -18 2 -4 4 32 4 36 0 50 -2 33 -4z m-291 -56 c37 -30 29 -72 -17 -94 -39
-19 -58 -69 -54 -146 3 -55 18 -112 27 -103 7 8 32 -14 32 -27 0 -6 -7 -2 -16
9 -16 20 -16 19 2 -33 14 -38 -23 23 -44 74 -34 80 -27 199 17 316 13 33 18
33 53 4z m149 -53 c4 -2 3 -21 -2 -41 -14 -61 -10 -109 16 -211 28 -111 46
-259 38 -323 -8 -68 -63 -230 -75 -222 -7 3 -8 1 -4 -6 4 -6 2 -25 -6 -41 -11
-26 -25 -35 -50 -31 -4 0 -5 -5 -2 -13 4 -10 -2 -12 -23 -8 -18 3 -23 7 -13
11 8 3 17 15 18 26 5 26 12 33 12 12 0 -9 7 -17 15 -17 18 0 38 36 32 58 -4
14 -6 13 -12 -6 -10 -30 -25 -28 -23 3 2 21 7 25 36 25 32 0 34 2 28 28 -5 20
-4 23 4 12 8 -13 10 -12 10 3 0 10 -4 26 -9 36 -6 10 -6 38 -2 67 5 28 9 37
10 22 2 -41 12 -63 22 -46 5 7 9 18 9 23 0 6 -4 4 -8 -3 -5 -7 -7 8 -6 35 2
26 -3 54 -9 63 -11 13 -10 13 6 1 10 -8 18 -29 19 -55 l1 -41 4 42 c4 39 -1
50 -59 127 -34 47 -65 83 -67 81 -2 -3 4 -16 13 -30 9 -14 13 -25 8 -25 -12 0
-33 50 -26 61 3 6 -1 21 -10 34 -22 34 -20 40 16 50 78 24 95 196 24 254 -9 8
-16 25 -16 38 0 24 2 25 37 18 21 -4 41 -9 44 -11z m-64 -113 c4 -20 7 -42 6
-48 0 -7 -1 -25 -2 -40 -1 -16 -13 -41 -27 -58 -14 -16 -22 -24 -18 -16 5 10
1 11 -15 6 -27 -8 -27 6 -1 30 11 10 20 22 20 26 0 4 -11 -3 -25 -16 -13 -14
-29 -25 -35 -25 -15 0 -30 45 -30 93 0 113 106 153 127 48z m173 54 c0 -8 -4
-15 -10 -15 -5 0 -10 -18 -10 -41 0 -24 4 -38 10 -34 6 4 10 -8 10 -29 0 -20
-5 -36 -11 -36 -6 0 -9 -7 -5 -15 3 -9 0 -15 -9 -15 -15 0 -16 -20 -2 -31 10
-7 -2 -39 -14 -39 -5 0 -9 -7 -9 -15 0 -20 17 -19 28 1 11 20 32 10 32 -16 0
-23 -16 -35 -23 -18 -3 8 -6 6 -6 -5 -1 -10 6 -20 14 -23 17 -7 21 -54 5 -54
-5 0 -10 11 -10 25 0 14 -4 25 -8 25 -11 0 -7 -106 8 -207 6 -45 10 -90 7
-100 -3 -10 -5 -1 -6 20 -1 24 -5 36 -12 32 -5 -4 -9 -26 -8 -48 2 -23 -5 -66
-14 -96 -20 -65 -20 -62 -4 -56 6 3 18 -4 24 -14 11 -17 10 -20 -5 -19 -9 0
-26 -3 -37 -8 -17 -7 -18 -6 -8 8 7 8 11 17 8 19 -2 3 2 41 10 84 20 117 20
311 0 435 -10 58 -21 107 -25 110 -13 8 -24 80 -12 80 6 0 15 12 20 28 9 22
11 23 11 6 1 -11 -2 -24 -5 -27 -4 -4 -8 -21 -9 -39 -3 -27 -1 -29 8 -13 5 10
11 48 12 84 2 37 3 67 4 69 0 1 12 2 26 2 16 0 25 -6 25 -15z m-240 -263 c0
-10 5 -23 11 -29 6 -6 9 -19 6 -29 -4 -16 -5 -15 -6 4 0 12 -6 22 -12 22 -6 0
-8 -7 -5 -16 17 -45 18 -64 3 -64 -20 0 -31 16 -17 25 16 10 12 28 -5 21 -17
-6 -21 9 -5 19 6 4 8 10 5 15 -3 5 0 12 6 15 5 4 8 13 5 21 -3 8 -1 14 4 14 6
0 10 -8 10 -18z m276 -42 c-4 -21 -2 -29 5 -24 7 4 6 -3 -1 -17 l-13 -23 -8
21 c-5 13 -3 32 4 47 16 34 21 33 13 -4z m15 -108 c-14 -5 -15 -62 -1 -62 13
0 13 -170 0 -190 -6 -10 -10 -11 -10 -2 0 6 -7 12 -15 12 -12 0 -15 14 -14 68
l1 67 14 -64 c8 -36 16 -67 19 -69 3 -3 5 31 5 76 0 74 -10 103 -23 70 -3 -7
-6 11 -6 40 -1 28 3 52 8 52 5 0 12 10 16 23 7 21 7 21 12 2 3 -10 0 -21 -6
-23z m-241 13 c13 -16 7 -45 -10 -45 -5 0 -10 9 -10 21 0 13 4 18 12 13 7 -5
8 -3 3 6 -6 10 -11 9 -22 -5 -14 -20 -17 -16 -7 9 8 20 18 20 34 1z m200 -57
c0 -51 -5 -47 -14 10 -4 29 -3 41 4 37 5 -3 10 -25 10 -47z m-129 -9 c-2 -8
-4 -19 -4 -25 0 -6 -9 -9 -19 -6 -21 5 -22 6 -6 32 14 22 35 21 29 -1z m1291
-109 c3 -16 1 -30 -4 -30 -4 0 -8 14 -8 30 0 17 2 30 4 30 2 0 6 -13 8 -30z
m-1461 -43 c-8 -8 -11 -7 -11 4 0 20 13 34 18 19 3 -7 -1 -17 -7 -23z m-7 -33
c3 -8 2 -12 -4 -9 -6 3 -10 10 -10 16 0 14 7 11 14 -7z m1721 -41 c-1 -21 -10
-53 -20 -72 -15 -30 -18 -32 -27 -17 -7 13 -6 21 2 29 10 9 12 8 7 -5 -9 -25
0 -22 14 3 6 12 7 19 1 15 -5 -3 -12 4 -16 17 -8 32 -7 47 4 47 5 0 9 -10 7
-21 -1 -12 4 -24 11 -26 6 -3 12 0 12 7 0 6 -4 8 -10 5 -5 -3 -10 -4 -10 -1 0
6 22 56 25 56 1 0 1 -17 0 -37z m-1715 -23 c0 -13 -1 -13 -10 0 -5 8 -10 22
-10 30 0 13 1 13 10 0 5 -8 10 -22 10 -30z m327 8 c-3 -8 -6 -5 -6 6 -1 11 2
17 5 13 3 -3 4 -12 1 -19z m-337 -46 c0 -8 3 -12 6 -9 9 8 44 -11 44 -24 0 -5
-8 -9 -17 -7 -12 2 -18 -3 -17 -14 1 -10 -4 -18 -12 -18 -17 0 -36 36 -31 58
2 11 8 5 15 -18 l12 -35 -5 40 c-2 22 -9 41 -15 43 -5 2 -10 8 -10 14 0 6 6 6
15 -2 8 -7 15 -19 15 -28z m1675 18 c-3 -5 -12 -10 -18 -10 -7 0 -6 4 3 10 19
12 23 12 15 0z m-1575 -4 c0 -3 -4 -8 -10 -11 -5 -3 -10 -1 -10 4 0 6 5 11 10
11 6 0 10 -2 10 -4z m-62 -102 c-13 -13 -20 -14 -34 -4 -15 9 -15 10 -2 6 9
-2 22 2 29 10 6 8 14 12 17 9 3 -3 -1 -13 -10 -21z m96 1 c-4 -8 -10 -15 -15
-15 -4 0 -6 7 -3 15 4 8 10 15 15 15 4 0 6 -7 3 -15z m-34 -15 c0 -5 -4 -10
-10 -10 -5 0 -10 5 -10 10 0 6 5 10 10 10 6 0 10 -4 10 -10z"/>
<path d="M1090 2539 c12 -9 10 -10 -9 -5 -17 3 -21 2 -13 -6 5 -5 20 -7 32 -3
18 6 20 9 9 16 -20 13 -37 11 -19 -2z"/>
<path d="M890 2420 c-13 -8 -12 -10 3 -10 9 0 17 -5 17 -11 0 -6 -6 -9 -14 -6
-17 7 -28 -17 -14 -31 6 -6 6 -12 -2 -17 -7 -4 -16 -1 -21 6 -8 12 -12 11 -23
-3 -14 -20 -31 -25 -20 -7 11 19 -133 7 -152 -13 -15 -15 -15 -16 4 -22 13 -4
19 -13 15 -21 -3 -9 2 -17 13 -21 11 -3 27 -10 37 -15 10 -5 22 -7 27 -4 18
11 11 20 -16 22 -14 0 -31 6 -38 13 -8 8 -4 9 17 1 16 -6 32 -9 37 -6 14 9 40
-24 33 -42 -4 -11 -3 -14 5 -9 7 4 12 13 12 20 0 8 8 13 17 12 10 0 19 8 21
18 2 11 19 36 38 55 29 31 31 37 16 43 -14 5 -13 7 5 7 29 1 37 16 17 35 -18
19 -15 18 -34 6z m-137 -87 c-7 -2 -21 -2 -30 0 -10 3 -4 5 12 5 17 0 24 -2
18 -5z m20 -20 c37 -1 67 2 67 7 0 6 5 10 10 10 6 0 2 -12 -7 -27 -10 -15 -17
-29 -15 -31 2 -2 1 -6 -2 -9 -3 -4 -6 3 -6 15 0 20 -5 22 -59 22 -33 0 -63 5
-66 10 -4 6 -11 8 -16 5 -5 -4 -9 -1 -9 5 0 8 6 9 18 4 9 -4 47 -9 85 -11z
m37 -39 c0 -14 -3 -14 -15 -4 -8 7 -15 14 -15 16 0 2 7 4 15 4 8 0 15 -7 15
-16z"/>
<path d="M1040 2400 c8 -5 20 -10 25 -10 6 0 3 5 -5 10 -8 5 -19 10 -25 10 -5
0 -3 -5 5 -10z"/>
<path d="M1091 2254 c0 -11 3 -14 6 -6 3 7 2 16 -1 19 -3 4 -6 -2 -5 -13z"/>
<path d="M765 2240 c-8 -12 49 -93 58 -83 4 3 7 -1 7 -10 0 -9 4 -19 10 -22 7
-4 7 3 0 20 -6 15 -7 31 -4 36 3 6 3 22 -1 37 l-7 27 -17 -24 c-19 -25 -38
-14 -27 14 6 17 -9 20 -19 5z m65 -37 c0 -5 -4 -14 -9 -21 -7 -11 -9 -11 -14
1 -3 8 -3 18 0 21 9 8 23 7 23 -1z"/>
<path d="M907 2265 c-25 -52 -22 -110 5 -129 12 -9 24 -13 27 -11 3 3 -5 12
-17 21 -26 18 -29 59 -7 111 20 47 13 53 -8 8z"/>
<path d="M1834 2054 c-4 -11 -9 -23 -12 -28 -3 -5 0 -6 6 -2 7 4 12 3 12 -2 0
-6 10 -8 22 -4 l22 5 -22 8 c-29 11 -28 19 1 12 23 -6 23 -6 -5 16 -15 11 -19
11 -24 -5z"/>
<path d="M1094 1419 c-1 -26 2 -36 7 -28 11 17 12 69 1 69 -4 0 -8 -18 -8 -41z"/>
<path d="M783 1225 c0 -22 2 -30 4 -17 2 12 2 30 0 40 -3 9 -5 -1 -4 -23z"/>
<path d="M970 560 c0 -8 5 -22 10 -30 9 -13 10 -13 10 0 0 8 -5 22 -10 30 -9
13 -10 13 -10 0z"/>
<path d="M886 1145 c16 -39 16 -112 -1 -160 -6 -17 -5 -16 10 3 23 32 18 153
-8 179 -17 17 -17 16 -1 -22z"/>
<path d="M1048 1173 c6 -2 18 -2 25 0 6 3 1 5 -13 5 -14 0 -19 -2 -12 -5z"/>
<path d="M1051 1129 c0 -20 -7 -56 -14 -80 -7 -24 -10 -55 -6 -69 6 -23 8 -22
13 5 1 6 7 21 14 35 9 18 10 42 3 85 -6 45 -9 51 -10 24z"/>
<path d="M1063 640 c0 -25 2 -35 4 -22 2 12 2 32 0 45 -2 12 -4 2 -4 -23z"/>
<path d="M1486 2405 c-22 -23 -20 -38 9 -65 34 -32 47 -87 47 -202 1 -54 4
-98 9 -98 14 0 51 90 61 153 13 77 -2 164 -35 195 -32 30 -71 37 -91 17z"/>
<path d="M1325 2176 c-72 -32 -125 -120 -125 -206 0 -127 133 -120 205 11 41
76 42 151 2 185 -32 27 -40 28 -82 10z m79 -25 c10 -11 18 -35 19 -54 1 -33
-21 -102 -30 -93 -3 2 0 13 5 23 16 29 -16 87 -51 91 -22 3 -27 -1 -27 -19 0
-18 -4 -21 -28 -16 -27 6 -28 5 -30 -45 -3 -63 17 -98 54 -98 22 0 25 -2 14
-15 -14 -17 -48 -19 -70 -5 -16 10 -20 74 -8 125 l7 30 -14 -30 c-30 -65 -15
-129 35 -148 10 -4 7 -6 -7 -6 -37 -1 -63 33 -63 82 0 121 134 244 194 178z
m-24 -185 c0 -2 -8 -10 -17 -17 -16 -13 -17 -12 -4 4 13 16 21 21 21 13z"/>
<path d="M1321 2141 c-8 -5 0 -8 25 -7 31 1 40 -4 51 -24 7 -14 13 -19 13 -12
0 43 -50 68 -89 43z"/>
<path d="M1000 2110 c-13 -8 -12 -10 3 -10 9 0 17 5 17 10 0 12 -1 12 -20 0z"/>
<path d="M960 2090 c0 -5 5 -10 10 -10 6 0 10 5 10 10 0 6 -4 10 -10 10 -5 0
-10 -4 -10 -10z"/>
<path d="M990 2086 c0 -3 27 -17 59 -31 32 -15 72 -40 87 -56 15 -16 32 -29
38 -29 5 0 -6 16 -24 35 -42 43 -160 103 -160 81z"/>
<path d="M968 2053 c6 -2 18 -2 25 0 6 3 1 5 -13 5 -14 0 -19 -2 -12 -5z"/>
<path d="M835 1985 c-35 -34 -33 -88 5 -148 35 -55 60 -67 142 -67 55 0 63 3
95 35 30 30 34 40 29 67 -16 79 -98 137 -194 138 -43 0 -57 -5 -77 -25z m100
-16 c43 -12 95 -45 95 -60 0 -15 -63 -10 -106 10 -45 20 -59 35 -49 51 8 12
11 12 60 -1z"/>
<path d="M1100 2007 c0 -2 15 -16 33 -33 l32 -29 -29 33 c-28 30 -36 37 -36
29z"/>
<path d="M1348 1813 c7 -3 16 -2 19 1 4 3 -2 6 -13 5 -11 0 -14 -3 -6 -6z"/>
<path d="M1481 1760 c14 -31 19 -36 19 -24 0 6 -7 19 -16 30 -14 18 -14 18 -3
-6z"/>
<path d="M860 1683 c0 -71 15 -103 58 -124 44 -22 96 -10 170 39 30 20 63 42
73 48 14 8 4 11 -49 12 -76 1 -187 32 -226 63 l-26 20 0 -58z m50 -78 c0 -2
-6 -5 -13 -8 -8 -3 -14 1 -14 8 0 7 6 11 14 8 7 -3 13 -6 13 -8z m77 -11 c-3
-3 -12 -4 -19 -1 -8 3 -5 6 6 6 11 1 17 -2 13 -5z m-57 -14 c0 -5 -5 -10 -11
-10 -5 0 -7 5 -4 10 3 6 8 10 11 10 2 0 4 -4 4 -10z m107 -6 c-3 -3 -12 -4
-19 -1 -8 3 -5 6 6 6 11 1 17 -2 13 -5z"/>
<path d="M1275 1680 c-3 -6 1 -7 9 -4 18 7 21 14 7 14 -6 0 -13 -4 -16 -10z"/>
<path d="M1457 1625 c-15 -14 -24 -25 -19 -25 5 0 19 11 32 25 30 32 23 32
-13 0z"/>
<path d="M1996 1621 c-4 -5 -2 -12 3 -15 5 -4 12 -2 15 3 4 5 2 12 -3 15 -5 4
-12 2 -15 -3z"/>
<path d="M988 1483 c7 -3 16 -2 19 1 4 3 -2 6 -13 5 -11 0 -14 -3 -6 -6z"/>
<path d="M2395 1020 c-3 -6 1 -7 9 -4 18 7 21 14 7 14 -6 0 -13 -4 -16 -10z"/>
<path d="M1535 821 c-22 -10 -51 -30 -64 -44 -26 -28 -51 -26 -51 6 0 40 -9
10 -35 -117 -25 -126 -93 -352 -122 -409 -8 -16 -13 -36 -11 -45 4 -21 68 150
104 278 15 52 28 97 30 99 5 6 26 -20 79 -99 24 -36 58 -79 77 -96 47 -45 167
-124 187 -124 9 0 -2 12 -25 28 -138 91 -178 126 -209 178 -29 49 -42 126 -27
164 8 21 10 16 10 -30 2 -93 4 -101 27 -95 11 3 14 2 8 -1 -7 -3 -13 -13 -13
-22 0 -13 2 -14 9 -4 6 10 11 6 19 -16 6 -17 8 -33 5 -36 -3 -3 4 -4 16 -3 25
2 25 -1 1 39 -11 18 -20 40 -20 48 0 8 9 -3 21 -24 11 -22 39 -57 62 -78 33
-30 37 -38 20 -33 -33 9 -28 -8 9 -29 28 -17 31 -17 25 -3 -9 24 0 21 14 -4 9
-17 8 -20 -2 -14 -8 5 -10 4 -5 -4 4 -7 17 -9 29 -6 16 5 18 4 8 -3 -9 -7 -10
-12 -2 -16 6 -4 11 -2 11 5 0 8 4 8 15 -1 8 -7 15 -22 15 -33 0 -11 3 -18 6
-15 3 4 21 0 39 -8 47 -19 67 -17 28 4 -17 9 -47 31 -65 48 -19 17 -39 33 -44
35 -12 5 -110 111 -148 162 -23 30 -30 50 -34 107 -2 39 -8 70 -13 70 -5 0 -6
7 -2 16 4 11 8 12 13 4 5 -8 9 -7 14 5 3 9 12 15 19 13 6 -2 29 14 50 34 21
21 33 38 27 38 -6 0 -18 -7 -27 -15 -8 -9 -18 -14 -20 -11 -13 12 29 38 51 32
14 -3 35 -2 48 3 17 6 5 9 -47 10 -46 0 -65 -2 -56 -8 12 -8 9 -11 -12 -16
-31 -8 -36 -25 -7 -25 21 0 27 -14 11 -25 -5 -3 -19 7 -30 21 -13 17 -26 24
-36 20 -29 -11 -6 11 29 28 72 34 219 16 310 -39 63 -38 77 -30 19 10 -90 61
-257 84 -338 46z m11 -98 c-4 -4 -11 -1 -16 7 -7 11 -10 12 -10 2 0 -7 -4 -11
-8 -8 -4 3 -9 -11 -9 -30 -1 -18 3 -32 7 -29 5 3 5 -9 -1 -27 -5 -18 -9 -42
-8 -53 0 -20 1 -20 8 0 7 17 9 16 15 -9 4 -16 5 -31 1 -34 -3 -3 -5 1 -5 8 0
7 -3 10 -7 6 -14 -14 -31 37 -21 65 7 21 5 34 -8 54 -16 25 -16 27 12 56 25
26 30 28 43 14 8 -8 11 -18 7 -22z"/>
<path d="M1548 793 c7 -3 16 -2 19 1 4 3 -2 6 -13 5 -11 0 -14 -3 -6 -6z"/>
<path d="M2296 615 c-3 -9 -6 -22 -5 -28 0 -7 5 -1 10 12 5 13 8 26 5 28 -2 2
-6 -3 -10 -12z"/>
<path d="M1572 403 c14 -15 25 -20 31 -14 14 14 -9 40 -33 38 -19 -1 -18 -2 2
-24z m22 1 c3 -8 2 -12 -4 -9 -6 3 -10 10 -10 16 0 14 7 11 14 -7z"/>
<path d="M588 383 c7 -3 16 -2 19 1 4 3 -2 6 -13 5 -11 0 -14 -3 -6 -6z"/>
<path d="M1350 366 c0 -2 8 -10 18 -17 15 -13 16 -12 3 4 -13 16 -21 21 -21
13z"/>
<path d="M2210 345 c0 -8 2 -15 4 -15 2 0 6 7 10 15 3 8 1 15 -4 15 -6 0 -10
-7 -10 -15z"/>
<path d="M1478 333 c7 -3 16 -2 19 1 4 3 -2 6 -13 5 -11 0 -14 -3 -6 -6z"/>
<path d="M505 309 c-4 -6 -5 -12 -2 -15 2 -3 7 2 10 11 7 17 1 20 -8 4z"/>
<path d="M2260 310 c0 -5 21 -10 48 -9 35 0 42 3 27 9 -28 12 -75 12 -75 0z"/>
<path d="M2220 298 c0 -4 4 -8 9 -8 6 0 12 4 15 8 3 5 -1 9 -9 9 -8 0 -15 -4
-15 -9z"/>
<path d="M1354 268 l-29 -33 33 29 c30 28 37 36 29 36 -2 0 -16 -15 -33 -32z"/>
<path d="M480 260 c-6 -11 -8 -20 -6 -20 3 0 10 9 16 20 6 11 8 20 6 20 -3 0
-10 -9 -16 -20z"/>
<path d="M2110 270 c0 -5 5 -10 10 -10 6 0 10 5 10 10 0 6 -4 10 -10 10 -5 0
-10 -4 -10 -10z"/>
<path d="M1618 223 c7 -3 16 -2 19 1 4 3 -2 6 -13 5 -11 0 -14 -3 -6 -6z"/>
<path d="M1270 206 c0 -2 9 -6 20 -9 11 -3 20 -1 20 4 0 5 -9 9 -20 9 -11 0
-20 -2 -20 -4z"/>
<path d="M571 184 c0 -11 3 -14 6 -6 3 7 2 16 -1 19 -3 4 -6 -2 -5 -13z"/>
<path d="M1499 153 c-13 -16 -12 -17 4 -4 16 13 21 21 13 21 -2 0 -10 -8 -17
-17z"/>
<path d="M1282 130 c0 -14 2 -19 5 -12 2 6 2 18 0 25 -3 6 -5 1 -5 -13z"/>
<path d="M498 133 c12 -2 30 -2 40 0 9 3 -1 5 -23 4 -22 0 -30 -2 -17 -4z"/>
<path d="M766 125 c-9 -26 -7 -32 5 -12 6 10 9 21 6 23 -2 3 -7 -2 -11 -11z"/>
<path d="M702 110 c0 -14 2 -19 5 -12 2 6 2 18 0 25 -3 6 -5 1 -5 -13z"/>
<path d="M2048 73 c7 -3 16 -2 19 1 4 3 -2 6 -13 5 -11 0 -14 -3 -6 -6z"/>
<path d="M1978 63 c6 -2 18 -2 25 0 6 3 1 5 -13 5 -14 0 -19 -2 -12 -5z"/>
<path d="M1428 33 c6 -2 18 -2 25 0 6 3 1 5 -13 5 -14 0 -19 -2 -12 -5z"/>
<path d="M1748 23 c7 -3 16 -2 19 1 4 3 -2 6 -13 5 -11 0 -14 -3 -6 -6z"/>
<path d="M1598 13 c12 -2 30 -2 40 0 9 3 -1 5 -23 4 -22 0 -30 -2 -17 -4z"/>
<path d="M973 3 c9 -2 23 -2 30 0 6 3 -1 5 -18 5 -16 0 -22 -2 -12 -5z"/>
</g>
</svg>
