<?xml version="1.0" standalone="no"?>
<!DOCTYPE svg PUBLIC "-//W3C//DTD SVG 20010904//EN"
 "http://www.w3.org/TR/2001/REC-SVG-20010904/DTD/svg10.dtd">
<svg version="1.0" xmlns="http://www.w3.org/2000/svg"
 width="680.000000pt" height="900.000000pt" viewBox="0 0 680.000000 900.000000"
 preserveAspectRatio="xMidYMid meet">

<g transform="translate(0.000000,900.000000) scale(0.100000,-0.100000)"
fill="#000000" stroke="none">
<path d="M5163 8977 c-39 -29 -110 -115 -203 -247 -176 -251 -268 -366 -401
-506 -37 -40 -70 -69 -73 -66 -3 3 -6 19 -6 35 l0 30 -32 -27 c-87 -69 -231
-146 -246 -132 -3 3 4 16 15 29 31 33 88 143 114 222 21 60 24 89 23 200 0
112 -4 141 -26 205 -20 59 -27 71 -33 55 -73 -190 -105 -249 -183 -340 -127
-147 -259 -213 -635 -315 -404 -110 -562 -184 -766 -362 -46 -40 -89 -77 -95
-81 -7 -6 -64 25 -151 80 -265 170 -486 281 -703 357 -295 102 -578 101 -710
-5 -93 -75 -114 -253 -62 -523 69 -355 247 -726 520 -1086 62 -81 217 -259
262 -301 15 -14 28 -31 28 -38 0 -7 -25 -64 -55 -128 -171 -360 -414 -564
-656 -551 l-77 5 20 -46 c31 -72 55 -106 113 -159 60 -55 122 -89 200 -109
l50 -13 -70 4 c-38 3 -81 8 -95 12 -24 7 -24 6 11 -37 23 -29 59 -56 108 -81
74 -38 82 -51 14 -23 -19 8 -38 15 -41 15 -22 0 224 -222 338 -306 179 -131
476 -294 692 -378 38 -14 97 -37 132 -51 36 -14 69 -25 75 -25 5 0 21 -5 34
-11 23 -10 19 -16 -123 -157 -245 -245 -401 -461 -554 -769 -72 -145 -152
-363 -196 -530 -6 -24 -13 -43 -15 -43 -3 0 -44 12 -92 27 -79 24 -105 27
-253 28 l-165 1 -100 100 c-127 125 -218 248 -294 394 -104 200 -153 364 -191
625 -34 243 -75 363 -140 419 -131 109 -293 -141 -340 -524 -13 -109 -13 -307
1 -446 36 -381 137 -691 308 -950 l59 -89 -42 -6 c-59 -9 -113 -39 -163 -89
-65 -66 -95 -141 -118 -293 -5 -32 -12 -40 -51 -58 -140 -66 -158 -220 -57
-494 31 -83 184 -384 238 -470 282 -443 726 -725 1139 -725 152 0 277 44 360
126 l42 43 70 -10 c38 -6 118 -8 180 -4 l111 6 6 -50 c15 -130 129 -241 247
-241 15 0 45 -12 66 -26 64 -44 125 -65 199 -71 59 -4 83 -1 149 21 44 15 92
36 108 48 26 18 35 19 71 10 120 -30 219 -21 331 32 98 47 177 113 237 200
l52 74 39 -59 c53 -79 154 -169 233 -208 116 -57 228 -70 347 -40 33 8 44 6
90 -20 141 -80 285 -79 417 3 37 22 72 36 93 36 52 0 129 42 176 95 23 26 42
54 42 63 0 10 6 12 23 8 103 -30 143 -36 223 -36 413 0 855 282 1139 725 54
84 207 386 238 470 101 275 85 422 -55 492 -41 20 -48 29 -53 61 -29 188 -90
298 -199 354 -48 25 -134 34 -177 19 -31 -11 -34 -9 -88 42 -71 67 -134 98
-217 105 -64 5 -180 -13 -190 -29 -12 -20 -42 -6 -72 32 -135 176 -426 245
-676 161 l-85 -28 -3 70 c-3 69 20 226 34 226 4 0 10 -9 13 -20 3 -11 18 -23
32 -26 57 -15 94 86 74 194 -6 30 -13 57 -16 62 -3 5 7 10 21 12 42 5 50 28
36 98 -7 34 -25 87 -39 117 l-26 54 21 15 c12 8 24 31 28 51 24 129 -104 479
-242 661 l-33 44 22 34 c18 28 43 44 132 82 349 152 659 418 877 752 98 150
202 367 258 538 26 81 51 165 54 187 l7 40 -30 -35 c-40 -46 -39 -35 4 36 56
92 90 227 39 149 -35 -52 -64 -84 -89 -97 -15 -8 -13 -3 8 22 16 18 40 55 53
83 26 51 56 137 47 137 -2 0 -18 -14 -36 -30 -51 -49 -143 -90 -199 -90 -44 0
-53 4 -91 43 -60 59 -95 149 -166 424 -66 252 -78 289 -151 434 l-50 99 31 51
c71 115 127 303 150 499 16 146 6 430 -21 590 -75 434 -239 776 -405 846 -47
19 -66 18 -102 -9z m159 -74 c259 -243 417 -1003 312 -1506 -26 -127 -118
-357 -142 -357 -4 0 -23 28 -44 63 -111 190 -333 424 -484 513 -47 28 -48 29
-45 129 8 262 81 657 172 930 62 185 115 275 161 275 11 0 42 -21 70 -47z
m-185 -10 c-105 -207 -207 -622 -244 -994 l-17 -165 -32 35 c-63 69 -79 91
-104 138 -14 26 -27 50 -30 53 -17 15 -45 143 -45 205 1 103 6 121 47 173 58
73 202 266 323 432 60 82 111 150 113 150 1 0 -4 -12 -11 -27z m-840 -402
c-11 -53 -20 -106 -21 -118 0 -11 -4 -19 -8 -16 -5 2 -8 -2 -8 -9 0 -18 -55
-124 -86 -168 -31 -42 -101 -117 -144 -154 -18 -15 -29 -30 -25 -34 4 -4 46
-7 93 -6 84 0 154 16 251 57 31 13 32 15 15 25 -24 14 -9 15 17 2 15 -8 19 -7
19 5 0 8 5 15 10 15 18 0 4 -59 -29 -120 -19 -35 -120 -130 -140 -130 -37 -1
23 -22 101 -36 83 -14 251 -67 329 -103 52 -23 120 -51 126 -51 2 0 1 6 -3 13
-4 7 -3 9 2 4 5 -5 9 -13 9 -19 0 -9 148 -98 162 -98 3 0 -1 8 -8 18 -13 15
-12 16 3 4 9 -8 15 -19 13 -25 -2 -7 23 -32 56 -57 69 -52 217 -202 238 -242
9 -17 19 -24 29 -21 10 4 13 2 8 -6 -11 -17 12 -41 32 -34 13 5 14 3 5 -7 -9
-9 -25 -2 -75 36 -102 79 -265 144 -358 144 l-36 0 -22 -85 c-12 -46 -25 -91
-28 -98 -4 -11 17 -15 108 -20 94 -4 130 -11 215 -40 57 -20 144 -57 195 -84
l93 -48 51 -104 c49 -98 105 -255 119 -331 4 -19 15 -62 24 -95 10 -33 23 -78
30 -100 31 -115 45 -154 54 -148 6 4 7 1 3 -6 -18 -29 80 -213 132 -250 43
-30 93 -41 135 -32 21 5 37 5 37 0 0 -5 -4 -9 -9 -9 -14 0 -20 -38 -7 -44 6
-3 -1 -3 -16 0 -25 6 -40 -8 -20 -19 4 -2 0 -2 -8 0 -14 4 -80 -27 -80 -38 0
-10 65 -26 103 -25 20 1 37 0 37 -2 0 -11 -26 -51 -49 -75 -22 -24 -23 -29
-11 -38 12 -8 10 -9 -7 -4 -24 7 -33 -10 -10 -18 6 -3 3 -5 -8 -4 -11 0 -40
-12 -64 -28 l-44 -30 34 -7 c39 -9 81 -2 122 18 30 16 38 47 10 38 -15 -5 -15
-4 -3 4 25 18 33 1 27 -58 -6 -52 -63 -206 -88 -237 -6 -7 -7 -18 -3 -24 4 -7
3 -9 -3 -6 -6 4 -18 -8 -28 -26 -33 -64 -42 -77 -48 -70 -4 3 -7 1 -7 -6 0 -7
-30 -51 -67 -97 l-68 -83 -6 43 c-14 93 -83 169 -172 190 -28 7 -28 8 -13 29
9 12 27 43 40 69 13 26 26 45 30 41 3 -3 6 2 6 13 0 10 7 32 15 48 8 15 15 42
15 58 0 16 4 27 8 24 14 -8 42 203 42 313 0 99 -35 329 -51 341 -4 3 -10 22
-14 43 -4 20 -10 37 -14 37 -4 0 -13 17 -20 38 -41 112 -151 243 -253 298 -49
27 -61 29 -158 29 -133 0 -175 -19 -277 -122 -119 -119 -188 -291 -214 -526
-18 -160 2 -310 68 -515 19 -59 31 -81 40 -77 8 2 11 1 8 -5 -3 -5 1 -15 8
-22 8 -7 12 -20 10 -29 -3 -9 0 -20 6 -23 7 -5 9 0 5 11 -3 10 5 -1 17 -25 12
-24 32 -50 45 -59 13 -8 24 -21 24 -28 0 -6 10 -17 23 -23 21 -10 20 -11 -12
-11 -40 -1 -111 -21 -111 -31 0 -14 40 -18 75 -9 47 13 104 -3 138 -39 51 -53
60 -137 26 -247 -16 -53 -31 -78 -69 -116 -53 -53 -91 -66 -166 -54 -39 6 -44
9 -38 27 10 32 -29 14 -84 -39 -143 -140 -350 -203 -522 -159 -102 26 -219
104 -294 193 -19 23 -19 23 19 38 47 20 40 28 -15 16 -48 -11 -96 -51 -116
-98 -23 -52 -16 -59 15 -15 16 22 35 43 41 47 6 4 38 -18 73 -52 67 -64 138
-116 175 -127 12 -4 22 -13 22 -20 0 -22 74 -129 121 -175 125 -123 270 -170
374 -122 109 51 223 220 256 380 8 35 18 65 24 66 82 22 103 32 136 64 60 59
91 138 97 251 l5 95 61 46 c98 74 188 120 250 126 74 8 146 -12 194 -52 54
-47 65 -79 60 -173 -4 -68 -11 -91 -49 -167 -57 -115 -162 -220 -348 -344 -56
-38 -279 -156 -353 -187 l-27 -12 5 82 4 81 -25 -90 c-45 -158 -135 -280 -254
-344 -150 -80 -336 -37 -504 118 l-71 66 28 -48 c15 -27 25 -52 21 -55 -12
-13 -487 -7 -610 6 -309 35 -405 65 -498 158 -102 100 -134 235 -91 384 53
185 199 301 429 341 96 16 381 6 515 -20 160 -30 220 -44 220 -52 0 -3 -12
-28 -26 -55 -14 -27 -17 -38 -7 -25 113 152 289 240 481 241 34 0 62 4 62 10
0 6 7 10 15 10 8 0 15 5 15 11 0 17 -191 3 -271 -20 -78 -22 -174 -70 -211
-105 -27 -25 -62 -33 -84 -18 -9 5 -8 11 2 20 8 7 14 10 14 6 0 -4 12 5 27 20
14 14 23 29 20 33 -4 3 3 11 16 18 13 6 22 20 21 32 0 12 4 21 10 20 15 -3 62
88 85 163 11 36 27 117 37 180 14 100 15 131 5 235 -14 138 -21 176 -30 171
-3 -2 -6 10 -7 27 -1 75 -108 300 -187 394 -36 44 -90 96 -125 123 -19 14 -39
30 -46 35 -31 26 -127 66 -184 76 -63 12 -159 7 -203 -9 -13 -6 -27 -10 -31
-11 -11 -2 -76 -39 -95 -54 -44 -34 -112 -109 -144 -157 -87 -133 -139 -368
-124 -559 9 -117 49 -290 85 -367 16 -36 30 -68 30 -71 0 -4 17 -35 37 -69 25
-42 40 -60 45 -51 5 8 8 6 8 -7 0 -26 49 -96 67 -96 8 0 11 -4 8 -10 -3 -5 1
-10 10 -10 9 0 14 -4 11 -9 -3 -4 -31 -11 -63 -14 -137 -15 -276 -79 -358
-166 -40 -41 -115 -162 -115 -184 0 -7 -5 -6 -10 3 -8 12 -12 13 -19 2 -4 -8
-10 -12 -12 -11 -2 2 -38 -6 -79 -17 -114 -29 -420 -28 -545 3 -209 52 -357
120 -454 209 l-33 31 28 6 c55 12 155 130 131 154 -4 3 -26 0 -51 -6 -87 -22
-268 -6 -269 24 0 6 19 20 43 31 88 43 216 161 197 181 -3 2 -45 -3 -93 -11
-49 -9 -114 -16 -144 -16 -65 0 -173 24 -178 39 -2 6 -10 11 -17 11 -8 0 -26
17 -40 37 l-25 38 24 6 c88 24 225 115 315 208 86 90 221 325 205 354 -4 7 -3
9 1 4 8 -7 33 38 40 73 1 8 12 44 24 79 12 35 21 67 21 70 0 3 -17 25 -38 47
-86 96 -168 188 -187 212 -11 14 -27 33 -35 41 -8 9 -31 37 -50 61 -19 25 -38
47 -42 48 -5 2 -8 9 -8 15 0 7 -14 28 -30 47 -16 19 -34 40 -40 47 -5 7 -10
15 -10 18 0 4 -27 46 -60 94 -33 48 -60 91 -60 95 0 4 -13 26 -28 49 -16 23
-50 85 -77 137 -26 52 -51 100 -55 105 -4 6 -15 34 -25 63 -10 31 -22 52 -29
49 -7 -3 -12 10 -13 36 0 22 -5 42 -10 46 -16 11 -83 237 -74 247 3 4 0 4 -6
0 -9 -5 -11 2 -8 26 4 24 3 27 -3 13 -6 -14 -10 -1 -15 50 -17 179 -3 272 51
328 51 54 144 87 248 87 73 0 270 -47 350 -84 31 -14 62 -26 69 -26 15 0 427
-207 435 -219 3 -5 20 -17 39 -27 18 -10 41 -23 50 -29 143 -88 211 -132 237
-152 17 -12 36 -23 42 -23 16 0 15 -20 -4 -55 -21 -39 -45 -107 -40 -112 2 -2
17 20 34 49 57 101 207 272 230 263 7 -3 11 -1 8 4 -18 28 311 232 351 217 8
-3 12 -2 8 3 -8 15 126 61 350 121 258 68 423 130 510 190 25 17 50 28 57 24
6 -4 8 -3 5 4 -4 5 12 28 36 49 88 78 140 150 205 283 l27 55 5 -49 c4 -32 -1
-84 -13 -145z m0 -148 c-3 -10 -5 -4 -5 12 0 17 2 24 5 18 2 -7 2 -21 0 -30z
m336 -113 c-15 -16 -30 -30 -32 -30 -5 0 21 33 38 48 26 22 24 13 -6 -18z
m-443 -110 c-17 -22 -34 -40 -37 -40 -3 0 0 6 6 13 6 8 7 18 3 22 -4 5 -2 6 3
2 6 -3 19 7 30 23 11 16 21 27 23 25 3 -2 -10 -22 -28 -45z m257 -7 c1 -36 1
-37 -6 -8 -6 26 -5 45 3 45 1 0 2 -17 3 -37z m-2864 10 c-7 -2 -19 -2 -25 0
-7 3 -2 5 12 5 14 0 19 -2 13 -5z m2812 -23 c-3 -5 -12 -10 -18 -10 -7 0 -6 4
3 10 19 12 23 12 15 0z m-2705 -9 c0 -5 -9 -7 -20 -4 -11 3 -20 7 -20 9 0 2 9
4 20 4 11 0 20 -4 20 -9z m110 -31 c8 -5 11 -10 5 -10 -5 0 -17 5 -25 10 -8 5
-10 10 -5 10 6 0 17 -5 25 -10z m2545 0 c3 -5 0 -7 -9 -4 -8 3 -25 0 -38 -6
-22 -11 -22 -10 -4 4 23 18 42 20 51 6z m92 -52 c-3 -7 -5 -2 -5 12 0 14 2 19
5 13 2 -7 2 -19 0 -25z m-2454 -25 c15 -7 27 -15 27 -18 0 -4 -92 35 -100 43
-8 8 43 -9 73 -25z m2174 21 c-3 -3 -12 -4 -19 -1 -8 3 -5 6 6 6 11 1 17 -2
13 -5z m259 -56 c-9 -12 -16 -17 -16 -11 0 7 5 15 10 18 6 4 8 16 5 28 -5 19
-5 20 5 4 8 -13 7 -22 -4 -39z m-2301 -28 c3 -6 -1 -7 -9 -4 -18 7 -21 14 -7
14 6 0 13 -4 16 -10z m2331 -28 c-17 -16 -18 -16 -5 5 7 12 15 20 18 17 3 -2
-3 -12 -13 -22z m-2289 2 c-3 -3 -12 -4 -19 -1 -8 3 -5 6 6 6 11 1 17 -2 13
-5z m2202 -27 c-2 -1 -13 -9 -24 -17 -19 -14 -19 -14 -6 3 7 9 18 17 24 17 6
0 8 -1 6 -3z m88 -3 c-3 -3 -12 -4 -19 -1 -8 3 -5 6 6 6 11 1 17 -2 13 -5z
m43 -14 c8 -5 11 -10 5 -10 -5 0 -17 5 -25 10 -8 5 -10 10 -5 10 6 0 17 -5 25
-10z m-2230 -20 c-12 -8 -12 -10 -1 -10 8 0 12 -3 8 -6 -9 -9 -28 6 -22 17 4
5 12 9 18 9 7 0 6 -4 -3 -10z m2300 0 c20 -6 21 -8 5 -8 -11 0 -29 3 -40 8
-25 11 1 11 35 0z m-203 -6 c-3 -3 -12 -4 -19 -1 -8 3 -5 6 6 6 11 1 17 -2 13
-5z m90 -20 c-3 -3 -12 -4 -19 -1 -8 3 -5 6 6 6 11 1 17 -2 13 -5z m248 -24
c-3 -5 -12 -10 -18 -10 -7 0 -6 4 3 10 19 12 23 12 15 0z m-105 -20 c8 -5 11
-10 5 -10 -5 0 -17 5 -25 10 -8 5 -10 10 -5 10 6 0 17 -5 25 -10z m-2180 -15
c7 -9 8 -15 2 -15 -5 0 -12 7 -16 15 -3 8 -4 15 -2 15 2 0 9 -7 16 -15z m40
-25 c0 -5 -2 -10 -4 -10 -3 0 -8 5 -11 10 -3 6 -1 10 4 10 6 0 11 -4 11 -10z
m2245 0 c8 -13 -5 -13 -25 0 -13 8 -13 10 2 10 9 0 20 -4 23 -10z m50 -28 c-3
-3 -11 0 -18 7 -9 10 -8 11 6 5 10 -3 15 -9 12 -12z m121 2 c18 -14 18 -14 -6
-3 -31 14 -36 19 -24 19 6 0 19 -7 30 -16z m-2353 -13 c24 -16 26 -19 11 -25
-9 -4 -19 -4 -22 -1 -3 3 1 5 9 5 8 0 1 9 -16 20 -16 11 -25 20 -20 20 6 0 23
-8 38 -19z m2337 -41 c8 -5 11 -10 5 -10 -5 0 -17 5 -25 10 -8 5 -10 10 -5 10
6 0 17 -5 25 -10z m90 -56 c0 -2 -16 4 -35 13 -19 9 -35 20 -35 25 0 4 16 -2
35 -13 19 -12 35 -23 35 -25z m125 -95 c12 -14 4 -10 -18 9 -21 17 -42 32 -47
32 -6 0 -10 5 -10 11 0 13 48 -20 75 -52z m-4018 29 c-3 -8 -6 -5 -6 6 -1 11
2 17 5 13 3 -3 4 -12 1 -19z m10 -40 c-3 -8 -6 -5 -6 6 -1 11 2 17 5 13 3 -3
4 -12 1 -19z m10 -40 c-3 -8 -6 -5 -6 6 -1 11 2 17 5 13 3 -3 4 -12 1 -19z
m4096 -37 c-2 -3 -16 8 -31 24 l-27 28 31 -24 c17 -13 30 -26 27 -28z m102
-110 c-3 -2 -6 -2 -7 0 -2 2 -19 22 -38 44 l-35 40 42 -39 c24 -22 40 -42 38
-45z m-4158 27 c-3 -8 -6 -5 -6 6 -1 11 2 17 5 13 3 -3 4 -12 1 -19z m69 -142
c0 -14 -5 -21 -9 -17 -4 4 -5 15 -1 24 9 24 12 21 10 -7z m4224 -68 c19 -24
26 -37 17 -29 -19 15 -61 71 -54 71 2 0 19 -19 37 -42z m-4190 -33 c0 -5 -5
-3 -10 5 -5 8 -10 20 -10 25 0 6 5 3 10 -5 5 -8 10 -19 10 -25z m24 -9 c-3 -9
-10 -16 -15 -16 -5 0 -4 9 3 20 14 22 21 20 12 -4z m34 -64 c10 7 14 8 9 3 -4
-4 3 -20 15 -34 19 -21 20 -23 3 -11 -11 8 -23 20 -27 25 -5 6 -8 4 -8 -5 0
-13 -1 -13 -10 0 -5 8 -9 20 -9 25 0 6 3 4 6 -3 4 -10 8 -10 21 0z m57 -134
c4 -7 -3 -2 -14 12 -11 14 -21 32 -21 40 0 13 5 5 35 -52z m4219 -27 c-6 -6
-11 1 -18 29 l-7 25 15 -25 c8 -14 12 -27 10 -29z m-4178 -58 c-5 -5 -36 50
-36 64 0 4 9 -7 21 -26 11 -18 18 -35 15 -38z m4214 -18 c0 -5 -5 -3 -10 5 -5
8 -10 20 -10 25 0 6 5 3 10 -5 5 -8 10 -19 10 -25z m-4176 -6 c4 6 13 11 19
11 7 0 4 -5 -6 -11 -12 -7 -16 -17 -12 -32 5 -19 4 -19 -9 3 -16 26 -22 55 -7
31 6 -9 11 -10 15 -2z m4235 -173 c1 -42 -5 -29 -12 24 -4 30 -3 38 3 25 5
-11 9 -33 9 -49z m-22 2 c-3 -8 -6 -5 -6 6 -1 11 2 17 5 13 3 -3 4 -12 1 -19z
m-4107 -8 c6 -11 8 -20 6 -20 -3 0 -10 9 -16 20 -6 11 -8 20 -6 20 3 0 10 -9
16 -20z m80 -109 c-1 -10 -50 53 -50 63 0 6 11 -5 25 -24 14 -19 25 -36 25
-39z m4068 34 c-3 -3 -9 2 -12 12 -6 14 -5 15 5 6 7 -7 10 -15 7 -18z m-401
-1 c-3 -3 -12 -4 -19 -1 -8 3 -5 6 6 6 11 1 17 -2 13 -5z m-80 -10 c-3 -3 -12
-4 -19 -1 -8 3 -5 6 6 6 11 1 17 -2 13 -5z m-64 -11 c-7 -2 -19 -2 -25 0 -7 3
-2 5 12 5 14 0 19 -2 13 -5z m554 -15 c-3 -8 -6 -5 -6 6 -1 11 2 17 5 13 3 -3
4 -12 1 -19z m-432 -33 c151 -25 296 -216 346 -460 46 -223 10 -472 -94 -646
-31 -53 -33 -54 -87 -60 -69 -8 -113 -26 -200 -85 -59 -39 -75 -46 -102 -40
-84 17 -202 129 -261 247 -34 70 -94 265 -84 275 3 3 14 -10 25 -28 49 -78
153 -146 259 -169 73 -15 171 0 249 38 68 33 147 116 182 190 24 52 27 70 27
163 0 93 -3 112 -27 162 -112 239 -410 308 -614 142 -30 -24 -54 -41 -54 -38
0 23 83 157 126 203 71 77 178 126 249 115 11 -1 38 -6 60 -9z m442 -7 c-3 -8
-6 -5 -6 6 -1 11 2 17 5 13 3 -3 4 -12 1 -19z m-697 2 c-8 -5 -19 -10 -25 -10
-5 0 -3 5 5 10 8 5 20 10 25 10 6 0 3 -5 -5 -10z m400 0 c-13 -8 -13 -10 1
-10 9 0 20 -7 23 -16 3 -9 12 -14 19 -11 7 3 13 -3 13 -13 0 -15 -6 -14 -33
11 -19 16 -38 29 -43 29 -21 0 -9 16 12 17 18 2 20 0 8 -7z m-3735 -20 c10
-11 14 -20 9 -20 -5 0 -15 9 -22 20 -7 11 -11 20 -9 20 2 0 12 -9 22 -20z m40
-50 c10 -11 16 -20 13 -20 -3 0 -13 9 -23 20 -10 11 -16 20 -13 20 3 0 13 -9
23 -20z m2065 -10 c18 -12 2 -12 -25 0 -13 6 -15 9 -5 9 8 0 22 -4 30 -9z
m1732 -26 c-9 -16 -10 -14 -9 8 1 15 6 23 11 18 4 -4 4 -16 -2 -26z m-1992 16
c-8 -5 -22 -9 -30 -9 -10 0 -8 3 5 9 27 12 43 12 25 0z m267 -42 c191 -70 353
-304 409 -586 29 -149 12 -359 -38 -487 -26 -67 -103 -180 -142 -210 l-32 -25
-100 20 c-54 11 -169 25 -254 32 l-155 12 -53 60 c-57 66 -108 157 -147 260
-14 36 -23 66 -22 66 2 0 26 -22 55 -50 209 -201 538 -138 669 129 25 51 28
66 28 167 0 107 -1 112 -38 186 -43 87 -103 148 -188 190 -67 33 -169 52 -228
43 -111 -17 -226 -81 -284 -159 l-30 -41 7 34 c8 46 53 147 89 200 111 165
279 224 454 159z m1961 -23 c0 -16 -2 -15 -8 5 -11 34 -11 60 0 35 5 -11 8
-29 8 -40z m-1878 35 c8 -5 11 -10 5 -10 -5 0 -17 5 -25 10 -8 5 -10 10 -5 10
6 0 17 -5 25 -10z m-2052 -35 c17 1 19 -1 10 -12 -9 -11 -13 -12 -19 -1 -5 7
-9 9 -9 4 0 -6 -9 0 -20 12 -11 12 -20 25 -20 29 1 4 8 -1 18 -13 10 -11 27
-20 40 -19z m1517 -5 c-3 -5 -12 -10 -18 -10 -7 0 -6 4 3 10 19 12 23 12 15 0z
m65 4 c0 -8 -19 -13 -24 -6 -3 5 1 9 9 9 8 0 15 -2 15 -3z m1448 -19 c-6 -14
-13 -23 -15 -21 -5 5 15 46 22 46 3 0 -1 -11 -7 -25z m-1493 -15 c3 -6 -1 -7
-9 -4 -18 7 -21 14 -7 14 6 0 13 -4 16 -10z m625 0 c0 -5 -2 -10 -4 -10 -3 0
-8 5 -11 10 -3 6 -1 10 4 10 6 0 11 -4 11 -10z m1130 -50 c36 -14 50 -16 50
-7 0 8 3 9 8 1 4 -6 21 -10 39 -8 18 1 31 -3 30 -8 -1 -6 4 -13 12 -16 8 -3
11 0 7 6 -10 16 34 -8 88 -49 25 -18 44 -39 41 -46 -2 -7 1 -15 7 -19 6 -4 8
-3 5 3 -3 5 0 10 8 10 8 0 12 -4 9 -9 -6 -10 21 -74 35 -83 5 -3 8 -50 6 -105
-4 -95 -6 -104 -40 -160 -20 -33 -39 -60 -41 -60 -3 0 -2 6 1 13 4 6 0 3 -9
-7 -8 -10 -13 -23 -9 -29 3 -6 1 -7 -5 -3 -6 3 -15 -2 -21 -11 -6 -10 -11 -13
-11 -8 0 6 -7 -5 -15 -23 -16 -37 -56 -57 -85 -42 -10 5 -29 11 -42 11 -17 1
-18 3 -5 6 12 3 17 14 17 37 0 17 5 37 12 44 17 17 73 15 88 -3 11 -13 16 -11
41 14 72 76 100 213 65 319 -20 60 -92 144 -145 171 -51 26 -110 41 -117 30
-3 -5 -1 -9 4 -9 12 0 32 -54 32 -83 0 -43 -42 -109 -79 -124 -55 -23 -126
-13 -163 24 -42 42 -55 113 -30 162 40 77 115 99 212 61z m-1801 -17 c-13 -16
-25 -30 -26 -32 -2 -2 -3 0 -3 5 0 12 37 54 47 54 4 0 -4 -12 -18 -27z m1473
-59 c-5 -9 -8 -1 -9 23 -1 33 0 35 8 15 5 -13 5 -30 1 -38z m-694 -5 c32 -55
24 -58 -10 -3 -15 24 -24 44 -20 44 4 0 17 -19 30 -41z m1541 -19 c0 -9 -4 -8
-9 5 -5 11 -9 27 -9 35 0 9 4 8 9 -5 5 -11 9 -27 9 -35z m-3772 4 c-6 -20 -13
-32 -14 -27 -4 11 14 63 21 63 2 0 -1 -16 -7 -36z m1409 14 c5 -7 3 -8 -6 -3
-9 5 -10 2 -6 -13 4 -11 3 -23 -2 -25 -6 -5 -9 39 -3 51 3 5 10 1 17 -10z
m1501 -55 c-3 -10 -5 -4 -5 12 0 17 2 24 5 18 2 -7 2 -21 0 -30z m1076 4 c3
-8 -1 -14 -8 -14 -7 0 -11 6 -8 14 3 7 6 13 8 13 2 0 5 -6 8 -13z m-2610 -22
c-3 -9 -8 -14 -10 -11 -3 3 -2 9 2 15 9 16 15 13 8 -4z m331 -32 c44 -47 59
-95 45 -146 -30 -108 -145 -149 -233 -82 -35 26 -50 55 -60 113 -7 42 6 75 44
109 41 37 55 41 117 42 47 1 55 -2 87 -36z m146 5 c25 -11 50 -22 56 -22 23
-2 92 -70 86 -84 -3 -10 -1 -13 6 -8 8 5 10 1 5 -10 -4 -12 -3 -15 5 -10 8 5
12 0 12 -13 0 -11 4 -23 10 -26 6 -4 7 1 4 12 -5 15 -4 15 4 3 6 -8 8 -18 5
-23 -3 -5 -1 -12 6 -16 13 -8 34 -109 25 -122 -3 -6 -6 -30 -6 -54 0 -25 -4
-45 -9 -45 -5 0 -9 -8 -9 -17 0 -22 -39 -87 -47 -79 -12 11 -31 -15 -26 -34 8
-28 -15 -78 -39 -86 -11 -3 -41 -3 -66 0 -32 4 -41 3 -27 -3 16 -8 13 -10 -18
-10 -26 -1 -36 -5 -31 -13 4 -7 3 -8 -4 -4 -6 4 -42 8 -80 10 -37 2 -75 7 -84
12 -11 6 10 8 60 6 102 -4 156 14 160 54 6 46 30 66 75 62 38 -3 40 -1 70 51
26 45 31 68 35 137 5 98 -11 154 -64 223 -40 53 -118 106 -179 120 -36 8 -37
9 -10 10 17 0 50 -9 75 -21z m460 -18 c5 8 7 3 7 -13 l-2 -27 -17 23 c-10 12
-18 27 -17 32 0 6 4 2 10 -9 9 -14 13 -15 19 -6z m1487 -2 c-3 -8 -6 -5 -6 6
-1 11 2 17 5 13 3 -3 4 -12 1 -19z m484 -5 c-8 -15 -10 -15 -11 -2 0 17 10 32
18 25 2 -3 -1 -13 -7 -23z m-236 -5 c-9 -6 -19 -7 -22 -4 -4 3 -1 6 6 6 7 0 9
4 6 10 -4 6 1 7 11 3 15 -6 15 -7 -1 -15z m-4105 -8 c-6 -11 -13 -20 -16 -20
-2 0 0 9 6 20 6 11 13 20 16 20 2 0 0 -9 -6 -20z m1407 -17 c-3 -10 -5 -4 -5
12 0 17 2 24 5 18 2 -7 2 -21 0 -30z m2773 7 c20 -6 21 -8 5 -8 -11 0 -29 3
-40 8 -25 11 1 11 35 0z m-1243 -22 c-3 -8 -6 -5 -6 6 -1 11 2 17 5 13 3 -3 4
-12 1 -19z m1300 16 c-3 -3 -12 -4 -19 -1 -8 3 -5 6 6 6 11 1 17 -2 13 -5z
m86 -9 c-3 -9 -8 -14 -10 -11 -3 3 -2 9 2 15 9 16 15 13 8 -4z m-1936 -37 c-3
-7 -5 -2 -5 12 0 14 2 19 5 13 2 -7 2 -19 0 -25z m1913 19 c0 -2 -10 -12 -22
-23 l-23 -19 19 23 c18 21 26 27 26 19z m-433 -39 c-3 -8 -6 -5 -6 6 -1 11 2
17 5 13 3 -3 4 -12 1 -19z m-3902 -8 c-3 -5 -12 -10 -18 -10 -7 0 -6 4 3 10
19 12 23 12 15 0z m1422 -22 c-3 -8 -6 -5 -6 6 -1 11 2 17 5 13 3 -3 4 -12 1
-19z m2500 0 c-3 -8 -6 -5 -6 6 -1 11 2 17 5 13 3 -3 4 -12 1 -19z m-10 -130
c-2 -24 -4 -7 -4 37 0 44 2 63 4 43 2 -21 2 -57 0 -80z m-2500 40 c-2 -13 -4
-3 -4 22 0 25 2 35 4 23 2 -13 2 -33 0 -45z m2953 52 c0 -5 -2 -10 -4 -10 -3
0 -8 5 -11 10 -3 6 -1 10 4 10 6 0 11 -4 11 -10z m-33 -6 c-3 -3 -12 -4 -19
-1 -8 3 -5 6 6 6 11 1 17 -2 13 -5z m-1360 -81 c-3 -10 -5 -2 -5 17 0 19 2 27
5 18 2 -10 2 -26 0 -35z m1333 17 c-11 -16 -26 -33 -33 -37 -12 -7 0 11 32 50
23 28 24 20 1 -13z m-4404 3 c-4 -9 -2 -20 5 -23 6 -4 0 -7 -14 -7 -25 0 -26
0 -9 23 20 28 27 30 18 7z m2571 -25 c-3 -8 -6 -5 -6 6 -1 11 2 17 5 13 3 -3
4 -12 1 -19z m-2613 -30 c-12 -23 -37 -48 -45 -48 -5 0 4 13 19 30 29 32 37
37 26 18z m2634 -143 c0 -96 -5 -81 -11 35 -2 47 0 76 4 65 4 -11 7 -56 7
-100z m1853 68 c-12 -20 -14 -14 -5 12 4 9 9 14 11 11 3 -2 0 -13 -6 -23z
m-4567 -43 c-5 -5 -10 3 -11 18 -1 22 0 24 9 8 6 -10 6 -22 2 -26z m-25 6
c-15 -15 -79 -54 -74 -45 4 6 21 19 39 30 29 18 45 24 35 15z m1668 -53 c-3
-10 -5 -2 -5 17 0 19 2 27 5 18 2 -10 2 -26 0 -35z m1580 5 c-3 -8 -6 -5 -6 6
-1 11 2 17 5 13 3 -3 4 -12 1 -19z m1316 2 c-3 -12 -8 -19 -11 -16 -5 6 5 36
12 36 2 0 2 -9 -1 -20z m-955 -7 c-16 -2 -40 -2 -55 0 -16 2 -3 4 27 4 30 0
43 -2 28 -4z m-345 -33 c3 -11 1 -18 -4 -14 -5 3 -9 12 -9 20 0 20 7 17 13 -6z
m1282 10 c3 -5 1 -10 -4 -10 -6 0 -11 5 -11 10 0 6 2 10 4 10 3 0 8 -4 11 -10z
m-4685 -15 c-14 -8 -29 -14 -35 -14 -5 0 1 6 15 14 14 8 30 14 35 14 6 0 -1
-6 -15 -14z m1829 -30 c0 -5 -4 -3 -9 5 -5 8 -9 22 -9 30 0 16 17 -16 18 -35z
m651 15 c0 -5 -5 -10 -11 -10 -5 0 -7 5 -4 10 3 6 8 10 11 10 2 0 4 -4 4 -10z
m-2662 -47 c-10 -2 -26 -2 -35 0 -10 3 -2 5 17 5 19 0 27 -2 18 -5z m37 -13
c-3 -5 -12 -10 -18 -10 -7 0 -6 4 3 10 19 12 23 12 15 0z m-86 -44 c-3 -3 -11
5 -18 17 -13 21 -12 21 5 5 10 -10 16 -20 13 -22z m3098 -3 c-3 -10 -5 -4 -5
12 0 17 2 24 5 18 2 -7 2 -21 0 -30z m1756 -8 c-3 -9 -8 -14 -10 -11 -3 3 -2
9 2 15 9 16 15 13 8 -4z m-1766 -47 c-3 -8 -6 -5 -6 6 -1 11 2 17 5 13 3 -3 4
-12 1 -19z m1739 -15 c-18 -33 -21 -26 -6 13 6 15 13 24 16 21 3 -3 -1 -18
-10 -34z m-2709 -13 c15 -39 10 -38 -15 4 -12 20 -15 33 -8 30 6 -2 17 -18 23
-34z m960 -12 c-3 -8 -6 -5 -6 6 -1 11 2 17 5 13 3 -3 4 -12 1 -19z m-2896
-43 c34 -16 34 -16 4 -10 -16 4 -34 11 -39 16 -14 13 -3 11 35 -6z m4596 -17
c-3 -8 -6 -5 -6 6 -1 11 2 17 5 13 3 -3 4 -12 1 -19z m-4474 -15 c-7 -2 -21
-2 -30 0 -10 3 -4 5 12 5 17 0 24 -2 18 -5z m65 0 c-10 -2 -26 -2 -35 0 -10 3
-2 5 17 5 19 0 27 -2 18 -5z m2673 -16 c-10 -9 -11 -8 -5 6 3 10 9 15 12 12 3
-3 0 -11 -7 -18z m1702 -42 c-3 -9 -8 -14 -10 -11 -3 3 -2 9 2 15 9 16 15 13
8 -4z m-4491 -32 c-12 -2 -19 -9 -16 -15 4 -6 -2 -6 -15 1 -30 17 -26 21 17
20 23 -1 29 -3 14 -6z m4418 -33 c0 -5 -2 -10 -4 -10 -3 0 -8 5 -11 10 -3 6
-1 10 4 10 6 0 11 -4 11 -10z m5 -36 c-28 -42 -43 -58 -30 -34 16 30 50 79 53
76 2 -2 -9 -21 -23 -42z m-4166 -10 c8 -7 -64 -2 -89 6 -16 6 -6 7 30 3 30 -3
57 -7 59 -9z m4085 -30 c3 -8 2 -12 -4 -9 -6 3 -10 10 -10 16 0 14 7 11 14 -7z
m19 -39 c-3 -9 -8 -14 -10 -11 -3 3 -2 9 2 15 9 16 15 13 8 -4z m-4208 -5 c19
-8 19 -9 -2 -9 -12 -1 -25 4 -28 9 -7 12 2 12 30 0z m45 -86 c0 -9 -37 15 -51
33 -10 12 -5 11 19 -6 17 -12 32 -24 32 -27z m4113 21 c-3 -9 -8 -14 -10 -11
-3 3 -2 9 2 15 9 16 15 13 8 -4z m-4038 -61 c13 -5 14 -8 3 -15 -10 -7 -10 -9
0 -9 6 0 12 -5 12 -11 0 -8 -5 -8 -15 1 -8 7 -13 16 -10 20 3 5 -1 11 -7 13
-7 3 -10 6 -6 6 3 1 14 -2 23 -5z m1192 -196 c-3 -7 -5 -2 -5 12 0 14 2 19 5
13 2 -7 2 -19 0 -25z m-932 2 c39 -26 25 -26 -17 0 -18 11 -28 20 -23 20 6 0
24 -9 40 -20z m199 -26 c12 -4 16 -20 16 -56 0 -31 -4 -47 -10 -43 -6 4 -10
16 -9 28 4 41 -1 57 -16 57 -11 0 -15 -11 -15 -36 0 -21 -4 -33 -10 -29 -14 9
-13 58 2 73 14 14 20 14 42 6z m726 -43 c0 -32 -6 -24 -14 19 -4 25 -3 31 4
20 5 -8 10 -26 10 -39z m-827 16 c-3 -5 5 -6 18 -3 20 6 21 5 6 -4 -13 -8 -22
-7 -39 4 -21 15 -21 15 0 13 11 0 18 -5 15 -10z m183 -82 c-3 -8 0 -15 6 -15
6 0 9 -2 6 -5 -3 -3 -16 -1 -29 4 -18 7 -20 10 -6 10 10 1 15 6 12 11 -3 6 -1
10 5 10 7 0 10 -7 6 -15z m61 9 c-3 -3 -12 -4 -19 -1 -8 3 -5 6 6 6 11 1 17
-2 13 -5z m70 -26 c16 -13 17 -48 2 -48 -5 0 -8 -4 -5 -9 4 -5 -3 -7 -15 -4
-18 5 -19 7 -5 15 27 15 19 38 -13 38 -17 0 -33 -4 -36 -10 -3 -5 -1 -10 6
-10 7 0 10 -2 8 -5 -3 -2 -15 -2 -28 2 -17 4 -19 8 -9 14 10 7 10 11 1 17 -6
4 10 8 35 9 26 1 52 -3 59 -9z m267 -9 c35 -28 33 -59 -8 -103 -19 -20 -30
-36 -24 -36 6 0 9 -3 5 -6 -3 -3 -12 -2 -21 3 -13 7 -9 14 19 45 39 41 42 54
18 80 -30 34 -143 17 -143 -21 0 -7 -4 -9 -10 -6 -5 3 -12 -6 -16 -20 -3 -14
-10 -25 -15 -25 -12 0 -12 1 6 43 8 20 27 43 43 51 41 23 114 20 146 -5z m256
13 c0 -4 -15 -8 -34 -9 -41 -1 -73 -21 -92 -58 -17 -32 -18 -98 -3 -127 12
-23 9 -30 -9 -19 -15 9 -27 91 -18 125 3 14 22 41 41 61 29 28 43 35 75 35 22
0 40 -4 40 -8z m-13 -28 c-3 -3 -12 -4 -19 -1 -8 3 -5 6 6 6 11 1 17 -2 13 -5z
m-287 -33 c0 -5 -11 -23 -25 -39 -13 -16 -22 -32 -18 -36 3 -3 1 -6 -5 -6 -21
0 -22 18 -1 44 12 15 18 30 15 33 -9 9 -56 -38 -56 -56 0 -10 -3 -12 -10 -5
-14 14 7 61 29 67 30 8 71 7 71 -2z m308 -11 c3 -11 2 -12 -8 -4 -19 19 -77
-4 -84 -32 -11 -43 3 -72 45 -88 21 -9 39 -18 39 -20 0 -2 3 -11 6 -20 3 -9 1
-16 -5 -16 -6 0 -11 7 -11 15 0 9 -12 18 -30 22 -94 18 -85 169 9 161 20 -2
36 -9 39 -18z m1850 6 c12 -4 22 -12 22 -18 0 -11 -33 -60 -70 -102 -78 -89
-176 -105 -291 -49 -36 18 -73 41 -82 51 -17 18 -15 21 29 57 43 36 52 39 108
39 74 -1 122 -23 140 -66 16 -38 26 -17 15 32 -9 40 -8 41 32 55 34 12 63 12
97 1z m-1858 -36 c0 -5 -2 -10 -4 -10 -3 0 -8 5 -11 10 -3 6 -1 10 4 10 6 0
11 -4 11 -10z m-2400 -35 c57 -30 105 -168 135 -390 32 -240 102 -477 191
-642 24 -46 44 -84 44 -86 0 -2 -24 2 -52 10 -149 40 -290 -19 -387 -160 -38
-56 -91 -169 -91 -194 0 -73 -68 168 -94 337 -48 300 -42 605 15 818 40 149
103 266 162 303 38 23 40 23 77 4z m2365 5 c3 -5 1 -10 -4 -10 -6 0 -11 5 -11
10 0 6 2 10 4 10 3 0 8 -4 11 -10z m84 -77 c1 -47 26 -62 34 -20 3 19 4 20 11
5 12 -27 0 -48 -28 -48 -30 0 -36 16 -35 88 1 67 17 44 18 -25z m-299 47 c0
-5 -2 -10 -4 -10 -3 0 -8 5 -11 10 -3 6 -1 10 4 10 6 0 11 -4 11 -10z m396
-116 c18 -14 18 -14 -6 -3 -31 14 -36 19 -24 19 6 0 19 -7 30 -16z m-396 -43
c0 -5 -7 -12 -16 -15 -14 -5 -15 -4 -4 9 14 17 20 19 20 6z m380 -11 c11 -8 7
-9 -15 -4 -37 8 -45 14 -19 14 10 0 26 -5 34 -10z m1924 -133 c106 -179 188
-437 170 -534 -8 -41 -22 -42 -91 -3 -29 17 -55 30 -57 30 -3 0 18 -23 45 -51
27 -28 61 -73 75 -100 29 -59 58 -165 48 -180 -4 -7 -29 12 -65 47 l-58 58 39
-100 c32 -79 39 -112 40 -164 0 -107 -20 -140 -54 -87 -12 17 -41 148 -47 211
-1 6 -7 -45 -15 -114 -26 -243 -84 -446 -192 -670 -167 -349 -479 -724 -854
-1028 -70 -56 -129 -102 -131 -102 -3 0 -8 16 -11 36 -14 71 -98 310 -214 606
-158 402 -205 550 -232 731 -13 88 -16 257 -6 362 l7 70 -19 -50 c-47 -124
-113 -215 -146 -202 -36 14 -15 110 61 286 29 69 51 126 49 128 -1 2 -32 -33
-67 -78 -56 -71 -105 -119 -123 -119 -3 0 -6 12 -6 26 0 37 54 134 112 202
110 128 112 132 67 105 -19 -12 -50 -30 -69 -42 -44 -26 -93 -27 -135 -1 -28
17 -53 49 -43 54 124 67 177 148 282 430 31 81 75 184 98 228 l43 80 65 -8
c36 -4 205 -9 377 -9 273 -1 315 -3 330 -18 10 -8 52 -33 93 -54 73 -37 78
-37 185 -38 107 0 114 1 179 34 44 23 87 55 124 96 l57 61 22 -27 c12 -14 42
-60 67 -102z m-1851 116 c-7 -2 -19 -2 -25 0 -7 3 -2 5 12 5 14 0 19 -2 13 -5z
m-499 -15 c-4 -6 -3 -8 3 -5 6 4 50 -6 99 -22 49 -16 130 -36 179 -45 95 -17
464 -48 477 -40 12 8 10 1 -26 -77 -18 -41 -43 -103 -56 -139 -83 -241 -173
-380 -266 -410 -39 -13 -41 -23 -15 -66 25 -41 84 -76 130 -78 l38 -1 -33 -46
c-102 -141 -98 -263 5 -212 l38 19 -14 -34 c-42 -101 -36 -204 13 -216 36 -9
97 28 114 69 6 14 9 5 10 -35 3 -171 13 -298 31 -405 17 -107 75 -369 99 -450
4 -16 11 -50 15 -75 4 -25 13 -70 21 -100 34 -137 65 -381 71 -564 l6 -189
-29 6 c-141 30 -399 12 -619 -43 -65 -17 -118 -30 -120 -30 -1 0 -5 24 -8 54
-6 60 -38 145 -121 319 -73 152 -109 244 -140 354 -52 182 -61 253 -60 488 0
229 11 325 55 503 11 46 18 86 15 89 -6 6 -24 -35 -36 -82 -7 -27 -8 -28 -9
-5 -1 23 -3 22 -28 -15 -14 -22 -29 -42 -32 -45 -10 -9 -111 -205 -127 -248
-9 -22 -12 -19 -54 45 -59 92 -207 238 -303 300 -49 32 -72 53 -63 56 8 3 17
27 21 59 16 123 127 508 146 508 5 0 6 7 3 15 -4 8 -11 12 -16 9 -6 -4 -4 4 2
17 17 33 24 38 16 12 -4 -12 -2 -24 5 -29 7 -4 9 -3 5 4 -3 6 0 26 8 44 8 18
20 48 26 65 7 18 16 31 20 28 4 -3 7 1 6 8 -2 23 78 157 94 154 10 -1 15 7 15
25 1 17 31 65 87 140 88 116 282 328 299 328 6 0 7 -5 3 -12z m543 6 c-3 -3
-12 -4 -19 -1 -8 3 -5 6 6 6 11 1 17 -2 13 -5z m181 -31 c-10 -2 -26 -2 -35 0
-10 3 -2 5 17 5 19 0 27 -2 18 -5z m92 -7 c0 -9 -30 -14 -35 -6 -4 6 3 10 14
10 12 0 21 -2 21 -4z m-1439 -839 c-10 -9 -11 -8 -5 6 3 10 9 15 12 12 3 -3 0
-11 -7 -18z m-1133 -59 c50 -18 67 -29 84 -57 32 -54 102 -136 195 -230 45
-47 82 -85 80 -86 -1 -1 -26 -10 -56 -20 -30 -10 -82 -34 -115 -53 -59 -34
-159 -126 -183 -167 -10 -19 -17 -14 -90 62 -93 95 -183 223 -247 349 l-45 89
42 43 c90 92 204 116 335 70z m1105 -16 c-3 -12 -9 -22 -14 -22 -5 0 -3 11 3
25 13 30 20 28 11 -3z m-53 -129 c-11 -17 -11 -17 -6 0 3 10 6 24 7 30 0 9 2
9 5 0 3 -7 0 -20 -6 -30z m-1442 -17 c-7 -8 -15 -12 -17 -11 -5 6 10 25 20 25
5 0 4 -6 -3 -14z m1423 -43 c-12 -20 -14 -14 -5 12 4 9 9 14 11 11 3 -2 0 -13
-6 -23z m-1466 -35 c-10 -13 -14 -16 -11 -8 3 8 9 24 13 35 4 11 8 14 11 7 2
-6 -4 -22 -13 -34z m1474 -53 c0 -5 -6 1 -14 15 -8 14 -14 30 -14 35 0 6 6 -1
14 -15 8 -14 14 -29 14 -35z m-43 -26 c-18 -41 -21 -29 -4 18 7 19 14 30 16
25 1 -4 -4 -24 -12 -43z m-19 -61 c-3 -8 -6 -5 -6 6 -1 11 2 17 5 13 3 -3 4
-12 1 -19z m-271 -22 c103 -18 181 -44 269 -89 116 -60 232 -147 220 -167 -3
-5 0 -7 7 -5 25 10 105 -91 218 -274 l65 -104 -3 -141 c-5 -217 26 -344 139
-569 27 -55 49 -109 49 -122 0 -30 -31 -56 -60 -50 -61 12 -224 159 -498 447
-39 42 -87 88 -105 103 -17 15 -57 50 -87 79 -125 116 -230 171 -332 175 -12
1 -34 36 -71 114 -36 76 -70 130 -105 168 -28 31 -48 60 -44 64 4 5 2 5 -4 2
-6 -3 -42 10 -80 31 -65 34 -75 37 -176 40 l-106 4 28 47 c122 198 393 297
676 247z m-1107 -138 c-6 -10 -7 -24 -3 -30 4 -6 3 -8 -4 -4 -6 3 -9 19 -7 34
2 15 4 32 4 37 1 6 5 3 10 -4 6 -9 6 -22 0 -33z m5050 -28 c133 -47 302 -210
211 -203 -14 1 -19 -1 -12 -4 10 -4 9 -9 -4 -24 -9 -10 -22 -16 -28 -12 -6 3
-8 3 -4 -2 4 -4 -7 -25 -25 -46 -33 -37 -48 -65 -106 -189 -17 -36 -28 -55
-25 -43 5 23 -30 94 -92 188 -66 97 -118 140 -198 161 -59 16 -163 18 -199 5
-40 -15 -47 -2 -40 71 l6 67 86 26 c47 15 91 29 96 31 6 2 69 2 140 0 102 -3
144 -9 194 -26z m-3039 -37 c-11 -17 -11 -17 -6 0 3 10 6 24 7 30 0 9 2 9 5 0
3 -7 0 -20 -6 -30z m2477 -28 c-2 -30 -7 -58 -11 -62 -4 -5 -5 6 -1 22 5 24 4
27 -5 15 -10 -13 -11 -12 -5 5 3 11 9 32 12 48 9 44 13 31 10 -28z m-4121 -42
c-8 -15 -15 -25 -16 -21 0 12 23 58 27 54 3 -2 -2 -17 -11 -33z m1621 -10 c-3
-10 -5 -4 -5 12 0 17 2 24 5 18 2 -7 2 -21 0 -30z m-1915 3 c7 4 8 2 4 -5 -10
-15 -26 -4 -25 17 1 15 2 15 6 -1 2 -9 9 -14 15 -11z m2805 -18 c-3 -7 -5 -2
-5 12 0 14 2 19 5 13 2 -7 2 -19 0 -25z m21 -78 l0 -25 -8 25 c-4 14 -8 34 -8
45 l-1 20 9 -20 c5 -11 8 -31 8 -45z m-2320 40 c136 -32 228 -117 307 -284 65
-136 152 -353 229 -570 65 -183 104 -278 176 -431 164 -348 212 -556 163 -700
-32 -95 -136 -172 -270 -200 -403 -86 -943 221 -1244 705 -65 105 -175 319
-216 422 l-31 77 39 -21 c76 -39 135 3 146 103 14 143 -123 275 -206 198 -29
-27 -32 -22 -16 24 15 44 48 82 87 103 36 19 48 18 48 -3 0 -22 49 -128 55
-121 3 3 -2 25 -11 49 -18 52 -20 166 -4 247 36 172 164 286 301 267 49 -7 50
-8 42 -34 -4 -14 -8 -55 -7 -91 0 -50 5 -73 23 -100 19 -29 22 -31 17 -10 -30
128 -15 200 59 275 87 89 195 122 313 95z m5065 -18 c117 -52 181 -135 182
-236 0 -34 -3 -79 -7 -101 l-7 -40 25 50 c21 42 24 60 21 110 -3 33 -8 67 -12
76 -5 14 3 18 44 24 134 18 252 -82 296 -252 21 -78 21 -206 1 -262 -9 -24
-14 -46 -12 -48 6 -6 56 103 56 121 0 20 13 20 48 2 39 -21 72 -59 87 -103 16
-47 12 -53 -18 -25 -81 77 -217 -53 -205 -195 6 -66 32 -105 80 -117 30 -7 42
-5 72 13 l36 22 -14 -33 c-62 -145 -92 -209 -150 -317 -121 -224 -215 -351
-366 -493 -313 -295 -722 -439 -1007 -353 l-53 16 6 57 c12 108 -41 246 -133
351 l-46 53 17 56 c27 87 68 186 165 401 49 108 117 275 151 371 137 385 262
669 325 739 115 127 283 172 418 113z m-1166 -29 c-3 -10 -5 -2 -5 17 0 19 2
27 5 18 2 -10 2 -26 0 -35z m-4352 17 c3 -6 -1 -7 -9 -4 -18 7 -21 14 -7 14 6
0 13 -4 16 -10z m4402 -57 c-2 -16 -4 -5 -4 22 0 28 2 40 4 28 2 -13 2 -35 0
-50z m20 35 c-3 -7 -5 -2 -5 12 0 14 2 19 5 13 2 -7 2 -19 0 -25z m-2590 -60
c-3 -7 -5 -2 -5 12 0 14 2 19 5 13 2 -7 2 -19 0 -25z m2438 12 c3 -5 1 -10 -4
-10 -6 0 -11 5 -11 10 0 6 2 10 4 10 3 0 8 -4 11 -10z m-24 -47 c-12 -20 -14
-14 -5 12 4 9 9 14 11 11 3 -2 0 -13 -6 -23z m-1444 -5 c-3 -8 -6 -5 -6 6 -1
11 2 17 5 13 3 -3 4 -12 1 -19z m-980 -80 c-2 -18 -4 -6 -4 27 0 33 2 48 4 33
2 -15 2 -42 0 -60z m2383 14 c0 -5 -7 -17 -15 -28 -14 -18 -14 -17 -4 9 12 27
19 34 19 19z m126 -54 c-23 -172 -78 -404 -156 -658 -98 -317 -120 -437 -96
-528 7 -29 9 -52 4 -52 -4 0 -41 9 -81 19 -93 25 -240 51 -297 52 -25 1 -55 4
-68 7 -22 7 -22 7 21 92 41 80 161 259 206 307 12 12 21 25 21 28 0 3 35 49
78 103 73 91 134 172 157 211 6 9 16 23 23 31 16 19 62 89 62 95 0 3 18 42 39
87 40 85 81 206 81 239 0 10 3 19 6 19 4 0 3 -24 0 -52z m51 20 c-3 -8 -6 -5
-6 6 -1 11 2 17 5 13 3 -3 4 -12 1 -19z m-2599 -33 c-3 -3 -9 2 -12 12 -6 14
-5 15 5 6 7 -7 10 -15 7 -18z m1091 -70 c0 -5 -4 -3 -9 5 -5 8 -9 22 -9 30 0
16 17 -16 18 -35z m1251 -5 c0 -5 -5 -10 -11 -10 -5 0 -7 5 -4 10 3 6 8 10 11
10 2 0 4 -4 4 -10z m-1231 -55 c0 -5 -4 -3 -9 5 -5 8 -9 22 -9 30 0 16 17 -16
18 -35z m1213 16 c8 12 9 12 6 0 -2 -8 -11 -15 -20 -17 -12 -1 -15 3 -10 14 4
12 7 13 10 3 4 -11 6 -11 14 0z m789 -38 c-12 -20 -14 -14 -5 12 4 9 9 14 11
11 3 -2 0 -13 -6 -23z m-3074 -50 c-3 -10 -5 -2 -5 17 0 19 2 27 5 18 2 -10 2
-26 0 -35z m-920 5 c-3 -8 -6 -5 -6 6 -1 11 2 17 5 13 3 -3 4 -12 1 -19z
m2010 0 c-3 -8 -6 -5 -6 6 -1 11 2 17 5 13 3 -3 4 -12 1 -19z m1430 -25 c-3
-10 -5 -2 -5 17 0 19 2 27 5 18 2 -10 2 -26 0 -35z m528 11 c-3 -20 -10 -44
-16 -53 -8 -13 -9 -11 -3 8 8 29 12 52 13 69 1 6 4 12 7 12 3 0 3 -16 -1 -36z
m-835 11 c-7 -8 -9 -15 -6 -15 4 0 1 -7 -8 -15 -25 -25 -29 -17 -6 15 12 17
24 30 27 30 3 0 0 -7 -7 -15z m297 -67 c-3 -8 -6 -5 -6 6 -1 11 2 17 5 13 3
-3 4 -12 1 -19z m-333 -4 c3 -8 2 -12 -4 -9 -6 3 -10 10 -10 16 0 14 7 11 14
-7z m-2167 -41 c-3 -10 -5 -4 -5 12 0 17 2 24 5 18 2 -7 2 -21 0 -30z m2113
-8 c-13 -14 -20 -28 -17 -32 4 -3 14 2 23 13 14 18 15 18 4 -3 -12 -25 -25
-29 -35 -12 -6 9 31 59 43 59 3 0 -5 -11 -18 -25z m372 -7 c-8 -8 -9 -4 -5 13
4 13 8 18 11 10 2 -7 -1 -18 -6 -23z m-3337 -80 c3 -7 -1 -4 -9 6 -9 11 -16
29 -15 40 1 17 2 16 9 -6 4 -14 11 -32 15 -40z m3832 40 c-3 -8 -6 -5 -6 6 -1
11 2 17 5 13 3 -3 4 -12 1 -19z m-2960 -40 c-3 -7 -5 -2 -5 12 0 14 2 19 5 13
2 -7 2 -19 0 -25z m2953 8 c0 -3 -4 -8 -10 -11 -5 -3 -10 -1 -10 4 0 6 5 11
10 11 6 0 10 -2 10 -4z m-23 -58 c-3 -7 -5 -2 -5 12 0 14 2 19 5 13 2 -7 2
-19 0 -25z m-500 -15 c-3 -10 -5 -4 -5 12 0 17 2 24 5 18 2 -7 2 -21 0 -30z
m-1249 2 c-3 -3 -9 2 -12 12 -6 14 -5 15 5 6 7 -7 10 -15 7 -18z m-2030 -16
c-3 -8 -7 -3 -11 10 -4 17 -3 21 5 13 5 -5 8 -16 6 -23z m872 -2 c0 -5 -4 -5
-10 -2 -5 3 -10 14 -10 23 0 15 2 15 10 2 5 -8 10 -19 10 -23z m1167 -19 c-3
-8 -6 -5 -6 6 -1 11 2 17 5 13 3 -3 4 -12 1 -19z m743 -2 c0 -3 -4 -8 -10 -11
-5 -3 -10 -1 -10 4 0 6 5 11 10 11 6 0 10 -2 10 -4z m-1890 -41 c0 -5 -5 -3
-10 5 -5 8 -10 20 -10 25 0 6 5 3 10 -5 5 -8 10 -19 10 -25z m1133 10 c-3 -9
-8 -14 -10 -11 -3 3 -2 9 2 15 9 16 15 13 8 -4z m52 -55 c7 -24 6 -24 -8 -5
-8 11 -18 31 -22 45 -7 24 -6 24 8 5 8 -11 18 -31 22 -45z m-2016 -40 c0 -10
-3 -8 -9 5 -12 27 -12 43 0 25 5 -8 9 -22 9 -30z m2641 36 c0 -2 -7 -7 -16
-10 -8 -3 -12 -2 -9 4 6 10 25 14 25 6z m-591 -91 c0 -5 -4 -3 -9 5 -5 8 -9
22 -9 30 0 16 17 -16 18 -35z m531 42 c0 -2 -12 -14 -27 -28 -24 -22 -23 -11
2 18 9 11 25 17 25 10z m580 -37 c0 -5 -5 -10 -11 -10 -5 0 -7 5 -4 10 3 6 8
10 11 10 2 0 4 -4 4 -10z m-660 -38 c0 -4 -10 -13 -22 -21 -23 -14 -23 -14 -4
8 20 22 26 25 26 13z m1104 -31 c-4 -17 -9 -30 -11 -27 -3 2 -2 19 2 36 9 41
17 33 9 -9z m-1544 -8 c-11 -17 -11 -17 -6 0 3 10 6 24 7 30 0 9 2 9 5 0 3 -7
0 -20 -6 -30z m1062 -5 c-8 -8 -9 -4 -5 13 4 13 8 18 11 10 2 -7 -1 -18 -6
-23z m-2202 -13 c0 -5 -5 -3 -10 5 -5 8 -10 20 -10 25 0 6 5 3 10 -5 5 -8 10
-19 10 -25z m-873 3 c-3 -8 -6 -5 -6 6 -1 11 2 17 5 13 3 -3 4 -12 1 -19z
m2365 -20 c-7 -7 -8 -17 -2 -29 11 -20 -2 -35 -20 -24 -8 5 -7 11 1 21 12 15
0 19 -17 7 -5 -5 2 2 16 14 26 24 43 32 22 11z m-2318 -51 c5 5 6 2 1 -5 -10
-18 -22 -4 -29 33 -6 30 -6 29 7 -3 7 -18 16 -30 21 -25z m3018 21 c-7 -7 -12
-8 -12 -2 0 14 12 26 19 19 2 -3 -1 -11 -7 -17z m-2162 -23 c0 -5 -5 -3 -10 5
-5 8 -10 20 -10 25 0 6 5 3 10 -5 5 -8 10 -19 10 -25z m2612 -7 c-6 -6 -12 -6
-17 3 -5 8 -4 10 3 5 7 -4 12 0 13 11 0 12 2 13 6 5 3 -8 1 -18 -5 -24z
m-1228 -9 c-10 -11 -28 -25 -39 -31 -11 -6 -4 4 15 20 41 36 51 41 24 11z
m763 -1 c-3 -8 -6 -5 -6 6 -1 11 2 17 5 13 3 -3 4 -12 1 -19z m444 -31 c-10
-9 -11 -8 -5 6 3 10 9 15 12 12 3 -3 0 -11 -7 -18z m-1271 -21 c0 -2 -7 -7
-16 -10 -8 -3 -12 -2 -9 4 6 10 25 14 25 6z m-141 -29 c0 -9 -2 -8 -6 1 -2 6
-10 9 -15 6 -7 -4 -8 -2 -4 5 9 13 26 5 25 -12z m-1986 -27 c3 -11 1 -18 -4
-14 -5 3 -9 12 -9 20 0 20 7 17 13 -6z m3358 -13 c-10 -9 -11 -8 -5 6 3 10 9
15 12 12 3 -3 0 -11 -7 -18z m-1271 3 c0 -5 -5 -10 -11 -10 -5 0 -7 5 -4 10 3
6 8 10 11 10 2 0 4 -4 4 -10z m-2060 -55 c0 -5 -5 -3 -10 5 -5 8 -10 20 -10
25 0 6 5 3 10 -5 5 -8 10 -19 10 -25z m872 -10 c9 -20 9 -20 -6 -1 -9 11 -16
27 -15 35 0 14 1 14 6 1 3 -8 10 -24 15 -35z m-832 -80 c0 -5 -5 -3 -10 5 -5
8 -10 20 -10 25 0 6 5 3 10 -5 5 -8 10 -19 10 -25z m30 0 c0 -5 -5 -3 -10 5
-5 8 -10 20 -10 25 0 6 5 3 10 -5 5 -8 10 -19 10 -25z m1980 -7 c0 -49 -5 -47
-13 5 -3 20 -2 37 4 37 5 0 9 -19 9 -42z m1211 -5 c-11 -21 -20 -35 -21 -31 0
12 33 78 38 74 2 -2 -6 -21 -17 -43z m-374 -10 c-3 -10 -5 -4 -5 12 0 17 2 24
5 18 2 -7 2 -21 0 -30z m-1980 -5 c-3 -7 -5 -2 -5 12 0 14 2 19 5 13 2 -7 2
-19 0 -25z m1346 15 c-7 -2 -19 -2 -25 0 -7 3 -2 5 12 5 14 0 19 -2 13 -5z
m-2175 -69 c-4 -3 -12 5 -18 18 -12 22 -12 22 6 6 10 -10 15 -20 12 -24z
m1624 12 c131 -25 257 -85 293 -139 31 -48 -17 -266 -91 -412 -63 -124 -196
-251 -313 -297 -77 -31 -256 -33 -314 -4 -79 39 -107 168 -58 269 25 51 103
127 132 127 10 0 20 4 23 9 8 12 -74 -7 -94 -22 -50 -37 -82 -77 -100 -124
-35 -93 -22 -193 32 -250 25 -27 27 -23 -39 -57 -80 -40 -174 -52 -252 -32
-128 33 -202 117 -202 229 0 117 96 233 231 278 18 7 14 7 -15 3 -129 -17
-239 -130 -252 -258 -5 -47 2 -79 32 -150 7 -16 5 -18 -26 -11 -136 29 -218
160 -192 310 28 166 155 314 348 406 92 44 296 102 435 123 125 19 329 20 422
2z m158 4 c8 -5 11 -10 5 -10 -5 0 -17 5 -25 10 -8 5 -10 10 -5 10 6 0 17 -5
25 -10z m694 -5 c115 -17 265 -54 368 -90 135 -47 281 -152 347 -249 109 -160
107 -367 -5 -452 -31 -24 -123 -59 -131 -50 -2 2 3 21 11 41 22 52 20 150 -3
201 -41 90 -132 160 -231 178 l-35 6 40 -17 c76 -34 103 -53 143 -98 128 -146
73 -342 -112 -397 -89 -27 -242 -4 -309 46 -17 13 -16 16 13 62 26 42 30 57
30 117 0 38 -5 87 -11 108 -23 76 -96 138 -179 153 l-35 6 35 -16 c57 -26 96
-60 126 -111 25 -42 29 -58 29 -130 0 -76 -2 -84 -31 -120 -38 -47 -82 -61
-191 -62 -159 -2 -290 66 -409 214 -77 96 -77 96 -49 159 46 103 66 203 72
347 l6 136 71 13 c39 6 78 13 86 15 47 9 269 3 354 -10z m-1637 -47 c-3 -7 -5
-2 -5 12 0 14 2 19 5 13 2 -7 2 -19 0 -25z m1081 -2 c-1 -31 -2 -32 -20 -17
-22 19 -23 22 -3 15 10 -4 15 0 15 15 0 12 2 21 5 21 2 0 4 -15 3 -34z m1215
-21 c-3 -9 -8 -14 -10 -11 -3 3 -2 9 2 15 9 16 15 13 8 -4z m-2373 -10 c0 -2
-6 -5 -13 -8 -8 -3 -14 1 -14 8 0 7 6 11 14 8 7 -3 13 -6 13 -8z m-721 -55 c0
-10 -3 -8 -9 5 -12 27 -12 43 0 25 5 -8 9 -22 9 -30z m2985 15 c11 -8 15 -15
10 -15 -6 0 -19 7 -30 15 -10 8 -14 14 -9 14 6 0 19 -6 29 -14z m-2419 -25
c-3 -5 -1 -10 6 -10 7 0 10 -3 6 -6 -9 -9 -28 6 -22 17 4 5 8 9 11 9 3 0 2 -4
-1 -10z m2470 -18 c-8 -8 -25 10 -19 20 4 6 9 5 15 -3 4 -7 6 -15 4 -17z m22
-14 c-3 -7 -5 -2 -5 12 0 14 2 19 5 13 2 -7 2 -19 0 -25z m-2516 -11 c-10 -9
-11 -8 -5 6 3 10 9 15 12 12 3 -3 0 -11 -7 -18z m-509 -29 c-6 -6 -7 0 -4 19
5 21 7 23 10 9 2 -10 0 -22 -6 -28z m468 -12 c-7 -7 -13 -7 -20 0 -6 6 -3 10
10 10 13 0 16 -4 10 -10z m-462 -62 c4 2 5 -16 3 -41 -4 -57 -7 -52 -13 22 -3
33 -3 50 -1 37 3 -12 7 -20 11 -18z m402 -10 c0 -8 -19 -13 -24 -6 -3 5 1 9 9
9 8 0 15 -2 15 -3z m-403 -146 c-3 -7 -5 -2 -5 12 0 14 2 19 5 13 2 -7 2 -19
0 -25z m-10 -40 c-3 -8 -6 -5 -6 6 -1 11 2 17 5 13 3 -3 4 -12 1 -19z m310
-30 c-3 -8 -6 -5 -6 6 -1 11 2 17 5 13 3 -3 4 -12 1 -19z m-320 -2 c-3 -8 -1
-17 6 -20 7 -2 4 -5 -5 -5 -10 -1 -18 1 -18 3 0 10 13 36 17 36 3 0 3 -6 0
-14z m180 -33 c-20 -2 -52 -2 -70 0 -17 2 0 4 38 4 39 0 53 -2 32 -4z"/>
<path d="M1155 8042 c-37 -13 -52 -27 -75 -71 -21 -42 -22 -54 -17 -180 5
-145 24 -231 93 -440 89 -269 270 -543 475 -721 104 -90 175 -124 266 -128
l72 -4 21 33 c11 19 34 79 50 134 59 194 81 258 111 324 117 250 121 264 98
332 -16 47 -82 145 -138 202 -61 65 -220 193 -329 265 -266 178 -530 285 -627
254z m130 -47 c216 -57 557 -267 767 -475 123 -121 168 -190 168 -257 0 -19
-27 -90 -64 -170 -72 -156 -82 -184 -137 -373 -43 -150 -62 -184 -106 -188
-130 -13 -371 195 -560 485 -159 242 -291 706 -253 888 21 102 61 122 185 90z"/>
<path d="M3399 7167 c-202 -98 -350 -268 -425 -491 -36 -105 -32 -115 23 -54
166 189 412 348 570 370 21 3 19 9 -37 102 -33 55 -61 101 -63 102 -1 1 -31
-12 -68 -29z"/>
<path d="M3340 6860 c-9 -6 -10 -10 -3 -10 6 0 15 5 18 10 8 12 4 12 -15 0z"/>
<path d="M4808 5123 c7 -3 16 -2 19 1 4 3 -2 6 -13 5 -11 0 -14 -3 -6 -6z"/>
<path d="M4855 5120 c-3 -5 -1 -10 4 -10 6 0 11 5 11 10 0 6 -2 10 -4 10 -3 0
-8 -4 -11 -10z"/>
<path d="M4966 5037 c3 -10 9 -15 12 -12 3 3 0 11 -7 18 -10 9 -11 8 -5 -6z"/>
<path d="M4981 4984 c0 -11 3 -14 6 -6 3 7 2 16 -1 19 -3 4 -6 -2 -5 -13z"/>
<path d="M5025 6150 c-16 -7 -17 -9 -3 -9 9 -1 20 4 23 9 7 11 7 11 -20 0z"/>
<path d="M4968 6133 c7 -3 16 -2 19 1 4 3 -2 6 -13 5 -11 0 -14 -3 -6 -6z"/>
<path d="M4876 6017 c3 -10 9 -15 12 -12 3 3 0 11 -7 18 -10 9 -11 8 -5 -6z"/>
<path d="M3468 6003 c7 -3 16 -2 19 1 4 3 -2 6 -13 5 -11 0 -14 -3 -6 -6z"/>
<path d="M3428 5993 c7 -3 16 -2 19 1 4 3 -2 6 -13 5 -11 0 -14 -3 -6 -6z"/>
<path d="M3478 5983 c7 -3 16 -2 19 1 4 3 -2 6 -13 5 -11 0 -14 -3 -6 -6z"/>
<path d="M3364 5964 c-18 -14 -18 -14 6 -3 31 14 36 19 24 19 -6 0 -19 -7 -30
-16z"/>
<path d="M3438 5973 c7 -3 16 -2 19 1 4 3 -2 6 -13 5 -11 0 -14 -3 -6 -6z"/>
<path d="M3307 5923 c-4 -3 -7 -11 -7 -17 0 -6 5 -5 12 2 6 6 9 14 7 17 -3 3
-9 2 -12 -2z"/>
<path d="M3490 5786 c0 -2 7 -7 16 -10 8 -3 12 -2 9 4 -6 10 -25 14 -25 6z"/>
<path d="M3731 5977 c2 -1 15 -11 29 -22 l25 -20 -19 23 c-11 12 -24 22 -29
22 -6 0 -8 -1 -6 -3z"/>
<path d="M3790 5931 c0 -6 4 -13 10 -16 6 -3 7 1 4 9 -7 18 -14 21 -14 7z"/>
<path d="M699 2347 c-55 -36 -71 -78 -67 -172 5 -96 37 -165 106 -226 81 -71
166 -72 219 -2 23 30 28 48 31 110 5 98 -23 176 -88 243 -69 71 -141 88 -201
47z"/>
<path d="M300 2108 c-54 -37 -75 -89 -75 -188 0 -101 24 -162 82 -206 76 -58
162 -36 213 56 20 38 24 58 24 120 -2 82 -17 129 -60 179 -53 64 -125 79 -184
39z"/>
<path d="M862 1445 c-152 -42 -256 -172 -256 -320 0 -230 224 -492 506 -593
100 -35 242 -38 304 -5 77 41 134 142 134 239 0 53 -37 181 -79 270 -101 214
-195 328 -321 388 -54 26 -79 31 -150 33 -52 2 -106 -3 -138 -12z"/>
<path d="M5982 2359 c-19 -6 -54 -30 -79 -55 -130 -130 -129 -361 2 -404 75
-25 172 35 230 142 23 43 30 68 33 133 4 94 -12 136 -67 172 -36 24 -65 27
-119 12z"/>
<path d="M6364 2111 c-70 -43 -109 -124 -108 -226 1 -82 20 -132 64 -169 62
-52 127 -47 188 15 100 99 95 306 -8 377 -41 27 -94 29 -136 3z"/>
<path d="M5677 1436 c-70 -29 -98 -47 -153 -98 -120 -111 -274 -436 -274 -578
0 -65 27 -134 72 -183 93 -98 260 -101 453 -8 204 99 360 279 410 471 41 157
-36 309 -193 383 -58 27 -80 32 -162 35 -82 2 -103 -1 -153 -22z"/>
</g>
</svg>
