<?xml version="1.0" standalone="no"?>
<!DOCTYPE svg PUBLIC "-//W3C//DTD SVG 20010904//EN"
 "http://www.w3.org/TR/2001/REC-SVG-20010904/DTD/svg10.dtd">
<svg version="1.0" xmlns="http://www.w3.org/2000/svg"
 width="600.000000pt" height="600.000000pt" viewBox="0 0 600.000000 600.000000"
 preserveAspectRatio="xMidYMid meet">

<g transform="translate(0.000000,600.000000) scale(0.100000,-0.100000)"
fill="#000000" stroke="none">
<path d="M2150 5618 c0 -83 26 -283 53 -411 14 -63 13 -69 -2 -74 -176 -62
-510 -221 -590 -281 -56 -43 -106 -103 -113 -137 -4 -16 9 -26 71 -56 l75 -36
43 19 c27 12 83 22 156 27 120 9 129 12 220 74 172 117 279 65 306 -149 25
-196 75 -250 280 -304 156 -41 312 -93 492 -165 l159 -63 -1 47 c0 25 -3 64
-7 86 -7 35 -3 48 27 99 130 225 197 506 173 724 -6 54 -23 137 -37 185 -40
138 -107 258 -131 235 -2 -3 9 -37 26 -77 111 -271 62 -608 -135 -913 l-48
-73 -19 70 c-36 130 -120 289 -234 441 -30 40 -54 75 -54 79 0 3 14 26 30 50
17 24 30 47 30 52 -1 12 -77 57 -158 92 -76 34 -191 66 -270 77 l-47 6 -140
225 c-76 123 -143 227 -147 229 -4 3 -8 -32 -8 -78z m-200 -684 c0 -19 -28
-30 -42 -16 -8 8 -8 15 1 26 14 17 41 10 41 -10z m110 -115 c0 -53 -19 -76
-90 -108 -62 -28 -95 -27 -128 6 l-27 27 52 11 c57 13 108 47 150 100 32 40
43 32 43 -36z m535 -154 c0 -22 -31 -33 -47 -17 -17 17 -1 44 24 40 15 -2 23
-10 23 -23z m213 11 c30 -16 94 -80 110 -111 15 -29 -40 -129 -92 -167 -81
-58 -191 -63 -292 -12 -71 35 -81 54 -28 54 104 0 203 76 244 188 13 34 25 62
27 62 2 0 16 -6 31 -14z"/>
<path d="M1496 4623 c11 -80 11 -80 56 -86 49 -7 55 -3 60 37 3 26 -2 32 -52
57 -30 16 -58 28 -62 29 -4 0 -4 -17 -2 -37z"/>
<path d="M1525 4478 c14 -64 24 -80 48 -76 18 2 23 10 25 47 4 49 -6 61 -51
61 -27 0 -28 -2 -22 -32z"/>
<path d="M1908 4369 c-25 -23 -75 -52 -110 -65 -54 -21 -57 -24 -23 -18 57 8
99 31 153 80 59 55 43 57 -20 3z"/>
<path d="M1990 4387 c0 -66 83 -202 141 -233 25 -13 21 -5 -24 39 -54 54 -97
138 -97 187 0 11 -4 20 -10 20 -5 0 -10 -6 -10 -13z"/>
<path d="M1578 4373 c-22 -6 -23 2 8 -85 23 -63 88 -188 99 -188 2 0 -9 31
-25 69 -16 39 -36 102 -46 140 -9 39 -17 70 -18 70 0 -1 -9 -3 -18 -6z"/>
<path d="M2688 4224 c18 -16 45 -48 60 -71 24 -36 46 -51 177 -117 83 -42 159
-83 170 -91 11 -9 -18 3 -65 26 -92 45 -237 109 -249 109 -3 0 -11 -19 -17
-42 -6 -24 -14 -50 -17 -58 -5 -10 4 -22 26 -37 45 -31 141 -113 145 -125 2
-5 -40 20 -95 55 l-98 63 -37 -43 c-46 -53 -66 -118 -74 -237 -6 -83 10 -371
22 -423 l6 -21 35 24 c46 31 68 32 52 3 -6 -12 -22 -53 -35 -91 l-24 -70 25 4
c14 3 25 4 25 2 0 -1 -9 -23 -20 -49 -11 -26 -20 -49 -20 -51 0 -3 20 7 43 21
65 37 71 32 38 -32 -34 -69 -74 -193 -91 -283 -7 -36 -28 -114 -47 -174 -33
-105 -70 -251 -148 -591 -104 -449 -244 -883 -357 -1109 -22 -43 -38 -79 -36
-81 2 -1 26 -10 54 -20 76 -27 154 -85 194 -144 l35 -53 48 54 c26 29 103 120
170 202 103 125 163 204 316 416 l18 25 28 -55 c35 -69 93 -156 162 -242 29
-37 53 -69 53 -71 0 -2 -46 -7 -102 -11 -137 -9 -275 -38 -353 -74 -105 -50
-185 -137 -185 -202 0 -20 5 -20 326 -20 l326 0 37 29 c76 60 210 111 334 126
44 6 62 3 96 -14 101 -52 168 -149 178 -259 l6 -60 301 -7 c165 -3 346 -5 401
-3 l99 3 27 95 c15 52 32 113 38 136 l11 41 102 12 c151 19 280 55 398 113 89
44 117 63 185 132 90 91 132 164 167 293 17 65 21 107 22 258 1 201 -15 292
-74 421 -32 71 -101 174 -145 214 l-27 25 7 -65 6 -65 -51 55 c-149 159 -249
370 -250 527 0 118 63 314 129 398 22 28 85 91 142 140 56 50 117 112 135 138
91 132 84 330 -14 439 -106 117 -308 130 -465 31 -58 -37 -129 -114 -158 -172
-13 -28 -27 -50 -31 -51 -4 0 -9 39 -10 86 l-3 86 -61 -94 c-114 -172 -189
-346 -224 -519 -30 -143 -24 -323 14 -454 70 -242 217 -457 541 -790 104 -108
133 -144 167 -213 36 -72 42 -93 46 -166 5 -103 -13 -171 -68 -254 -71 -106
-184 -166 -339 -179 l-74 -6 7 49 c18 130 28 310 23 409 -20 383 -195 762
-533 1153 -125 144 -401 424 -584 591 -198 181 -448 429 -512 510 -65 81 -65
76 1 113 25 13 31 24 31 49 l0 31 26 -17 26 -17 -4 71 c-3 73 -1 80 20 59 15
-15 18 -11 26 39 l6 41 -82 32 c-94 36 -362 120 -458 145 -36 9 -74 19 -85 22
-14 3 -11 -3 13 -23z m398 -2942 c28 -59 50 -109 48 -111 -1 -2 -39 27 -82 64
l-80 68 27 43 c14 24 28 44 31 44 3 0 28 -49 56 -108z"/>
<path d="M1896 3609 c-146 -160 -236 -450 -236 -756 0 -62 -3 -113 -7 -113 -5
0 -59 43 -122 96 -62 52 -157 129 -210 170 l-96 74 -11 -113 c-14 -135 -26
-184 -66 -259 l-30 -57 93 -113 c278 -336 490 -568 555 -608 50 -31 136 -44
211 -30 72 12 152 40 200 70 l33 19 -56 77 c-132 185 -253 414 -217 414 9 0
12 6 9 18 -15 48 -27 173 -30 317 -2 118 -8 172 -20 204 -18 48 -15 61 10 41
14 -12 15 -10 9 26 -4 21 -13 66 -20 99 -7 33 -12 62 -9 64 2 3 17 -8 32 -22
l28 -27 -8 67 c-5 38 -6 139 -3 226 4 86 5 157 2 157 -3 0 -21 -18 -41 -41z"/>
</g>
</svg>
